<svg width="132" height="105" viewBox="0 0 132 105" fill="none" xmlns="http://www.w3.org/2000/svg">
<path d="M35.2194 0.883904C30.8739 2.36022 27.8683 4.48467 25.2248 8.12146C21.1691 13.6666 20.0103 17.3394 20.6983 22.3805C21.1691 25.6572 22.0382 28.2498 23.0159 29.294C23.885 30.2302 24.4644 30.3382 25.0438 29.6181C25.4059 29.186 25.587 29.222 26.275 29.9062C26.7457 30.3743 27.9045 31.1664 28.8823 31.7425C30.8739 32.8588 32.3224 34.047 32.3224 34.5151C32.3224 34.6592 32.0327 34.6232 31.6344 34.4071C31.2723 34.1551 30.6929 34.0831 30.367 34.1911C29.3168 34.5872 29.7514 35.8834 31.562 37.7918C32.757 39.0521 33.4088 40.0963 33.5536 40.9965C33.7709 42.1128 34.2417 42.6889 36.2696 44.3093C39.3476 46.7578 40.6512 49.0623 40.6512 52.0509C40.615 55.3276 39.7097 60.8728 38.1526 67.3902C35.2918 79.3808 35.2918 81.1092 37.9353 88.2027C39.7459 93.0277 40.0718 93.4238 42.4256 93.8199C44.019 94.108 44.6708 95.0442 43.8379 95.8724C42.2808 97.4207 40.3253 97.5647 20.0103 97.8168L0.636719 98.0328L18.4531 98.1048C36.8852 98.1768 40.9772 97.9608 43.0413 96.7725L44.1276 96.1244L44.7794 97.8888C45.8296 100.877 48.7628 103.578 50.9717 103.578C51.5149 103.578 52.1667 103.83 52.4564 104.118C53.2169 104.838 54.6292 104.802 56.5122 103.938C58.9022 102.858 60.2059 102.75 62.0165 103.434C64.1892 104.262 73.6768 104.442 77.7688 103.758C80.4123 103.326 80.7744 103.146 81.8608 101.886C82.5126 101.129 83.4903 99.9772 84.0697 99.3651C84.6129 98.717 85.4458 98.1768 85.8441 98.1768C86.2787 98.1768 87.4375 98.897 88.4514 99.7972C89.4654 100.697 90.5879 101.418 90.9863 101.418C93.0142 101.418 93.2676 100.301 92.0364 97.0966C90.9501 94.252 91.2398 90.2551 93.1228 82.9456C94.7886 76.4642 95.4766 72.0352 96.0922 63.6094C96.4905 58.3163 96.5992 57.6321 97.2872 57.092C97.939 56.5519 98.0477 56.0838 98.0477 53.4552C98.0477 49.8905 97.2872 48.0541 95.4042 46.9378L94.1367 46.1817L96.0922 45.4975C101.271 43.7331 104.493 43.5891 104.964 45.1374C105.507 46.9378 106.413 48.4141 107.97 50.2505C110.07 52.6631 110.903 54.2114 110.903 55.6517C110.903 57.4521 109.273 57.8842 104.204 57.4521C100.148 57.128 99.4961 57.3081 98.6995 59.1805C98.2649 60.2607 98.2287 61.0889 98.5546 64.1135C98.7357 66.13 99.0254 72.5033 99.134 78.3366C99.4237 93.6759 99.8583 95.0802 104.928 97.0246L107.463 97.9968L119.413 98.0328L131.363 98.0688L119.775 97.8528C107.39 97.6007 106.123 97.4207 102.755 95.5483C100.22 94.144 99.7858 91.5154 99.4599 76.7522C99.3513 70.811 99.134 64.7617 98.953 63.3213C98.5908 60.0446 98.9892 58.3883 100.257 57.9562C100.764 57.7761 102.683 57.8122 104.493 57.9562C108.26 58.3163 110.65 57.8842 111.265 56.8039C111.917 55.5437 110.758 52.8071 108.368 50.1065C107.064 48.5582 105.978 46.9018 105.616 45.8576C104.711 43.157 103.443 42.9049 98.3736 44.3813C96.5992 44.9214 94.8972 45.3895 94.6075 45.4975C94.2092 45.6055 93.6298 44.8134 92.652 42.8329C89.574 36.6036 85.0475 31.5625 78.9276 27.5296C75.2701 25.1171 74.7632 24.9011 73.0974 24.9011C72.0835 24.9011 70.9247 25.0091 70.5263 25.1531C69.9107 25.4052 69.6935 25.2251 69.4038 24.433C68.8968 23.1727 67.8829 22.8486 66.4344 23.5328C65.4566 24.0009 65.2031 24.0009 63.8633 23.3167C62.1251 22.4165 60.0972 20.4721 59.2643 18.8878C58.9384 18.2756 58.1418 16.3312 57.4899 14.6029C56.2587 11.2901 53.4704 6.57313 51.7322 4.84476C48.292 1.38801 39.8184 -0.628426 35.2194 0.883904ZM41.8463 0.955917C45.3588 1.46002 49.487 3.26041 51.2976 5.0608C53.398 7.18526 55.969 11.5062 57.2727 15.107C58.9384 19.86 60.6404 22.0925 63.8633 23.7848L65.1669 24.469L63.1028 29.006C59.1919 37.5398 57.7072 40.1324 55.788 41.6087L54.9189 42.2928L53.9411 41.1406C53.0358 39.9523 53.0358 39.8803 53.5428 38.2239C54.1222 36.2435 55.1361 30.2662 55.1361 28.7539C55.1361 28.1778 54.593 26.9895 53.8687 25.9453C52.4564 24.0009 52.4202 23.6768 53.0358 20.7602C53.398 18.8878 53.3617 18.5637 52.6375 17.0154C51.2614 14.2068 49.0887 13.3786 47.3143 14.9989C45.5399 16.6913 46.3728 19.2479 49.9216 22.9206C50.7545 23.8208 51.6236 24.9731 51.8408 25.5132C52.0581 26.1253 52.1667 29.258 52.0581 33.5789C51.9133 40.2044 51.8408 40.7445 51.1166 41.5006C50.7183 41.9327 49.8854 42.5089 49.306 42.7609C48.3282 43.121 48.1472 43.085 47.3505 42.3648C45.5761 40.7085 45.214 39.3402 45.6847 35.9194C46.1193 32.3547 45.8296 30.2662 44.8519 30.3382C44.3449 30.4103 44.2725 30.1942 44.4535 28.8979C44.5984 27.8897 44.526 27.2056 44.1638 26.7375C43.6569 26.0533 43.6569 26.0533 42.8964 26.8095C41.9187 27.7817 41.7376 27.7817 41.7376 26.8815C41.7376 25.9093 40.5426 25.9453 39.5649 26.9535C39.1665 27.3856 38.8406 27.8537 38.8406 28.0337C38.8406 28.1778 38.4785 28.2858 38.0802 28.2138C37.4646 28.1778 37.03 28.6099 36.0885 30.3022C35.4005 31.4905 34.5676 33.3629 34.2779 34.4431L33.6623 36.3876L32.8294 34.7312C32.1414 33.3989 31.4895 32.7508 29.7152 31.7425C26.5647 29.9062 25.4421 28.7899 25.4421 27.4576C25.4421 26.0173 24.7903 23.7128 24.3195 23.4248C23.7401 23.0647 23.2694 24.0369 23.5229 25.0811C23.6315 25.5852 24.066 26.5934 24.4644 27.3496C25.1524 28.5739 25.1886 28.7539 24.6454 29.258C24.1385 29.7981 23.9936 29.7621 23.3418 29.114C21.4588 27.2416 20.4448 18.9238 21.6398 15.287C22.5089 12.6224 26.275 7.00522 28.4115 5.13281C31.2723 2.64828 35.4367 0.883904 38.8406 0.631844C39.1303 0.631844 40.5064 0.775879 41.8463 0.955917ZM51.2976 15.7191C52.5289 17.1954 52.9634 18.9598 52.5651 20.6522C51.9857 23.1727 52.1667 24.1809 53.579 26.1973L54.8827 28.1058L54.4481 31.2024C53.8325 35.5954 52.9634 39.1241 52.5289 39.1241C52.2754 39.1241 52.2392 37.0717 52.4202 32.7148C52.7099 25.3332 52.7099 25.3332 49.7043 22.0204C46.7711 18.7798 46.1193 16.7633 47.5316 15.359C48.6179 14.2788 50.1751 14.4228 51.2976 15.7191ZM68.8968 24.1809C69.1141 24.469 69.2589 24.9011 69.1865 25.1891C69.1141 25.6212 68.7882 25.5852 67.4483 25.0091C66.2171 24.469 65.9636 24.2529 66.3619 24.0009C67.1586 23.4968 68.3898 23.5688 68.8968 24.1809ZM24.8627 26.1613C25.1162 27.4216 25.1162 27.4216 24.573 26.5214C24.2471 26.0173 24.0298 25.2251 24.0298 24.721C24.0298 23.5328 24.5368 24.433 24.8627 26.1613ZM68.8606 26.0173C68.933 26.0893 68.245 26.9535 67.3397 27.9617C65.855 29.5821 64.2978 32.2827 60.8939 39.1601C59.5178 41.9327 58.1418 47.0458 57.8883 50.2865C57.5624 54.7155 55.1724 64.3656 53.4704 68.2544C52.9634 69.3346 52.6737 70.4509 52.7823 70.7029C52.8548 70.991 52.7823 71.099 52.6013 70.991C52.4202 70.883 51.8046 71.6751 51.2614 72.7554L50.2475 74.7358L50.3561 64.4016C50.4286 56.6599 50.6096 53.7793 50.9717 52.9871C51.2252 52.375 51.877 50.8627 52.3478 49.5664C52.8548 48.2701 53.6152 46.5777 54.0136 45.7856C54.4481 45.0294 54.774 44.1292 54.774 43.8772C54.774 43.5891 55.6793 42.4008 56.8019 41.2126C58.7574 39.0881 60.0972 36.6396 64.2978 27.4936L65.6015 24.721L67.1586 25.2972C68.0277 25.6572 68.7882 25.9813 68.8606 26.0173ZM74.8356 25.5852C76.9721 26.4494 82.585 30.4103 84.6853 32.4987C85.8079 33.615 87.6185 35.7754 88.7411 37.2877C90.8414 40.0603 93.7746 45.4615 93.4125 45.8216C93.3038 45.9296 92.3261 45.7856 91.2398 45.4615C88.2703 44.5973 84.6491 41.5006 83.0196 38.404C82.2229 36.8917 73.6768 28.1778 71.9748 27.0615C71.0695 26.5214 70.3453 25.9813 70.3453 25.9093C70.3453 25.6572 71.9748 25.1171 72.8077 25.1171C73.2423 25.0811 74.1838 25.2972 74.8356 25.5852ZM76.7911 32.1026C79.507 34.7312 82.1867 37.6838 82.8747 38.8001C84.6491 41.7167 88.4514 45.1374 90.4793 45.6775C92.2537 46.1817 92.5796 46.6858 91.0949 46.6858C89.574 46.6858 88.1255 45.6415 85.1561 42.3648C82.7299 39.6643 81.0279 38.2599 76.7549 35.4153C75.2339 34.4071 73.8217 34.1551 73.4233 34.8032C72.9526 35.5594 73.713 37.3958 75.0891 38.9801C77.5153 41.7887 76.9721 42.0048 71.3954 40.7085C69.1141 40.2044 66.0722 39.7363 64.66 39.7003C63.2115 39.7003 62.0165 39.5562 62.0165 39.4122C62.0165 38.44 63.6822 35.1273 65.0221 33.3989C65.8912 32.2827 67.3035 30.1942 68.1363 28.7539L69.6573 26.1613L70.816 26.7735C71.4679 27.1336 74.1476 29.5101 76.7911 32.1026ZM41.3755 27.6017C41.3755 28.4298 38.2975 38.7641 38.0078 38.9801C37.9715 39.0161 37.5008 39.1241 36.9938 39.2322L36.0523 39.4842L36.7765 36.8557C37.1749 35.4513 37.7905 33.4709 38.1526 32.4987C38.5509 31.5265 38.8406 30.2662 38.8406 29.6901C38.8406 28.4658 40.0718 26.5214 40.8685 26.5214C41.1944 26.5214 41.3755 26.9175 41.3755 27.6017ZM44.0552 27.4576C44.1638 27.7817 43.9466 29.294 43.5482 30.8423C43.1499 32.4267 42.4981 35.2713 42.0997 37.1797C41.7376 39.0881 41.3393 40.7445 41.2306 40.8165C41.1582 40.9245 40.5426 40.6005 39.927 40.1684C38.9131 39.4122 38.8044 39.1601 39.0217 38.0439C39.1665 37.3598 39.6735 35.7394 40.1805 34.4791C40.6875 33.2189 41.3031 31.3825 41.5928 30.4103C42.317 27.5656 43.5482 26.1253 44.0552 27.4576ZM66.5792 30.4463C65.6739 31.8506 64.841 33.0028 64.7324 33.0028C64.4427 33.0028 65.5653 30.9504 66.7965 29.114C68.5709 26.5574 68.3898 27.7097 66.5792 30.4463ZM38.0802 29.6541C37.8991 30.1942 37.8267 30.8424 37.8991 31.0944C38.0078 31.3825 37.9715 31.5265 37.7905 31.4185C37.4646 31.2024 36.6679 33.867 35.9437 37.3958C35.4729 39.7003 35.0383 40.0243 34.459 38.476C33.7347 36.6756 34.7487 33.1108 36.9214 29.6541C37.8629 28.1418 38.6596 28.1418 38.0802 29.6541ZM45.214 35.2353L44.9605 39.6643L46.0831 41.4286C46.6987 42.3648 47.1332 43.229 47.0246 43.337C46.7711 43.6251 43.0775 42.7609 42.2808 42.2208L41.5203 41.7167L42.6791 37.0357C43.8741 32.1746 44.3811 30.8423 45.0691 30.8423C45.3588 30.8423 45.3951 32.1026 45.214 35.2353ZM32.1776 35.5234C32.3949 36.0275 32.6846 36.8917 32.8294 37.4318L33.0829 38.44L32.1414 37.8279C31.055 37.1437 30.0048 35.3073 30.367 34.7672C30.7291 34.1551 31.743 34.5872 32.1776 35.5234ZM75.9582 35.4513C78.8914 37.0717 82.9834 40.3484 84.4318 42.1848C85.3009 43.301 86.8219 44.8494 87.8358 45.6415C89.574 47.0098 89.7551 47.0818 91.8554 46.9738L94.0281 46.8658L94.6799 49.2063C95.5852 52.339 95.9473 57.128 95.368 57.128C95.1145 57.128 93.9919 56.876 92.8693 56.5519C91.0949 56.0478 90.3707 56.0118 87.2926 56.3718C85.3009 56.6239 82.0418 56.8039 79.9777 56.8039C76.5376 56.7679 75.8133 56.6599 70.6712 55.0396C63.3925 52.7351 60.7853 51.4028 61.4733 50.2865C61.8354 49.7104 63.0304 49.8544 66.1809 50.8267C67.7742 51.3308 69.5486 51.7268 70.1642 51.7268C71.7214 51.7268 70.816 51.0787 68.8968 50.8267C68.0277 50.7186 66.9775 50.4306 66.5792 50.1425C66.1447 49.8905 64.9859 49.3863 63.9719 49.0623C61.9078 48.3781 60.3507 47.0098 60.6766 46.1817C61.0025 45.3535 62.1251 45.4615 64.1892 46.5057C65.9274 47.4059 69.5848 48.4862 70.7074 48.4862C71.7214 48.4862 70.3091 47.838 68.7157 47.5499C67.0862 47.2979 62.5234 45.3895 61.5819 44.5973C60.8939 44.0212 60.749 43.193 61.2198 42.4369C61.4733 42.0768 61.7268 42.0768 62.5959 42.5449C63.1753 42.8329 64.0081 43.085 64.4065 43.085C64.841 43.085 66.1085 43.4811 67.231 43.9852C69.44 44.9574 71.8662 45.2815 69.8021 44.3453C67.7018 43.3731 63.0304 41.6447 62.5234 41.6447C62.1975 41.6447 62.0165 41.3926 62.0889 41.0325C62.3424 39.7363 65.8188 39.8443 71.8662 41.3206C76.7186 42.4729 78.0223 41.7887 75.7409 39.1962C74.6545 37.9719 73.6044 35.9915 73.6044 35.1633C73.6044 34.6232 74.727 34.7672 75.9582 35.4513ZM34.133 38.9801C34.459 39.7723 34.6762 39.8803 36.0523 39.8443C36.8852 39.8083 37.7543 39.8083 37.9353 39.8443C38.1526 39.8803 38.4423 39.9163 38.5872 39.8803C38.7682 39.8443 39.7097 40.5644 40.6875 41.4286C42.4256 42.977 43.9828 43.5891 47.1695 43.8772C47.8575 43.9492 48.292 44.4173 48.9801 45.7856C49.8854 47.586 49.8854 47.694 49.994 58.5683C50.1389 74.0877 49.6681 77.9405 46.3728 87.9867C44.9243 92.4516 44.3087 93.8199 43.9104 93.7119C43.6207 93.6399 42.7516 93.4598 41.9911 93.3158C40.2529 93.0277 39.8546 92.4156 37.8991 86.7624C36.8127 83.6657 36.3058 81.5413 36.3058 80.317C36.3058 77.8685 37.1024 73.5115 38.6596 67.1742C40.9047 58.1002 41.5928 51.2587 40.4702 48.5582C39.8184 47.0458 37.4646 44.4893 35.6902 43.4091C34.8211 42.8689 34.3503 42.2208 33.952 40.8165C33.3726 38.9081 33.264 38.0439 33.5899 38.0439C33.6985 38.0439 33.952 38.476 34.133 38.9801ZM61.8716 39.0881C61.8354 39.6643 61.763 40.0603 61.6906 39.9883C61.5819 39.9163 61.2922 40.3484 61.0387 40.9605C60.7853 41.6087 60.4593 42.0408 60.3869 41.9327C60.2059 41.7887 61.6181 38.0439 61.8354 38.0439C61.8716 38.0439 61.9078 38.512 61.8716 39.0881ZM53.7963 41.7527C54.4119 42.5089 54.4481 42.7969 54.086 43.229C53.8325 43.5171 53.7239 43.9492 53.8687 44.1652C54.086 44.5253 53.3255 46.5417 51.5511 50.2865C51.1528 51.1867 51.1528 51.1507 51.3339 50.1065C51.4425 49.4944 52.0219 47.982 52.6375 46.7218C53.2169 45.4615 53.6152 44.3453 53.5066 44.2372C53.2531 43.9492 51.2614 48.4862 50.9355 50.1065L50.6458 51.5468L50.3561 49.2423C50.2113 47.946 49.7043 46.1817 49.2335 45.2455L48.4007 43.6251L49.7767 42.977C50.5372 42.5809 51.4425 41.8967 51.8046 41.4286C52.5289 40.4204 52.8548 40.4924 53.7963 41.7527ZM59.3368 47.946C58.5039 51.3668 58.4677 51.4748 58.4315 49.7104C58.3952 48.1261 59.0109 45.1734 59.7351 43.4451C60.3869 41.9327 60.1334 44.7053 59.3368 47.946ZM61.2198 48.1261C61.8354 48.7022 62.6321 49.2423 62.9942 49.2423C63.3563 49.2783 63.0666 49.3863 62.3786 49.5304C61.4371 49.6744 61.075 49.9625 61.0025 50.5386C60.8215 51.7629 63.0666 52.9871 69.1503 55.0036C76.3203 57.3801 79.1811 57.7401 85.5544 57.02C90.1896 56.5159 90.9501 56.5159 94.5351 57.3081L95.6939 57.5601V60.9088C95.6939 67.8223 94.6075 75.672 92.5434 83.4137C90.8414 89.823 90.5517 94.5761 91.6743 97.3847C92.5796 99.6532 92.652 100.661 91.8554 100.949C91.0949 101.238 89.8637 100.625 88.1617 99.077C86.1338 97.2767 85.2647 97.3847 83.2368 99.6892C82.3315 100.733 81.5711 101.706 81.5711 101.85C81.5711 102.354 80.1588 102.858 77.5153 103.362C73.7492 104.046 64.1168 103.866 62.3062 103.074C60.4593 102.282 59.7351 102.318 56.5484 103.47C54.0498 104.334 52.6013 104.406 52.6013 103.686C52.6013 103.506 53.072 103.182 53.6514 102.93C55.5345 102.102 59.2643 99.041 62.1975 95.9084C64.5151 93.4958 66.1085 91.1553 70.1642 84.4579C75.8133 75.0239 79.2897 68.5065 80.4485 64.9417C81.2814 62.4932 81.3538 60.6928 80.6296 60.4767C80.4123 60.4047 79.2897 61.845 78.0947 63.6814C76.8635 65.6258 74.4373 68.6145 72.337 70.811C70.3091 72.8994 67.8829 75.636 66.9051 76.9323C65.9274 78.2286 64.0806 80.353 62.8494 81.6853C58.5763 86.2223 54.7378 92.9197 53.5066 97.9968C52.203 103.434 52.3116 103.218 51.2252 103.218C48.7628 103.182 45.3588 99.7972 44.8881 96.8806C44.5984 95.1522 44.9967 93.3158 46.9884 87.5546C47.8575 84.962 48.799 81.7573 49.0525 80.425C49.3784 78.7687 49.7405 77.8325 50.1389 77.6164C51.0442 77.1123 51.9133 75.2399 53.6152 70.0908C56.7657 60.4047 58.5039 54.3194 59.4816 49.2783C59.7351 48.0541 59.9886 47.0458 60.061 47.0458C60.0972 47.0458 60.6404 47.5139 61.2198 48.1261ZM96.9613 49.4224C97.8304 51.1507 97.9752 55.6157 97.1786 56.5519C96.4905 57.3801 96.056 56.6959 96.056 54.7875C96.056 53.4912 95.4042 50.0705 94.7523 47.766C94.4989 46.9018 94.4989 46.9018 95.368 47.4419C95.8387 47.766 96.563 48.6302 96.9613 49.4224ZM80.7382 62.4572C80.195 65.7699 76.8273 72.5033 70.1642 83.6297C64.8772 92.4156 62.5959 95.5123 59.2281 98.3929C56.5484 100.733 53.1807 102.966 53.0358 102.534C52.9634 102.354 53.3255 100.589 53.7963 98.6089C55.2086 92.9557 58.4677 87.0865 62.7407 82.5135C63.8271 81.3252 65.7825 79.0207 67.0138 77.3644C68.2812 75.744 70.9609 72.6474 72.9888 70.5229C75.0529 68.3984 77.4791 65.4098 78.4568 63.8615C80.3761 60.8008 81.0641 60.3687 80.7382 62.4572ZM51.877 74.0156C51.0804 76.1761 50.0664 77.5804 50.0664 76.5362C50.0664 75.8881 52.3116 71.4951 52.5289 71.7112C52.6375 71.7832 52.3478 72.8274 51.877 74.0156Z" fill="#151515"/>
</svg>
