<svg width="140" height="101" viewBox="0 0 140 101" fill="none" xmlns="http://www.w3.org/2000/svg">
<path d="M81.7588 68.18H81.4032C79.3121 67.3929 79.4984 61.1406 79.7495 59.2259C79.7608 59.1403 79.7307 59.0724 79.6592 59.0221C79.3093 58.7691 78.887 58.3104 78.3922 57.6461C77.6246 56.6161 78.0817 56.1305 79.0864 55.6336C80.4635 54.9489 81.7014 54.065 82.8001 52.982C82.8979 52.8871 82.9487 52.9076 82.9525 53.0434L82.9553 53.1328C82.9591 53.2128 82.9976 53.237 83.071 53.2053L84.3974 52.675C84.4256 52.662 84.434 52.6415 84.4228 52.6136L84.3974 52.5466C84.3955 52.5429 84.3926 52.542 84.3889 52.5438C83.294 53.1021 81.3327 51.5474 80.6921 50.9417C80.6244 50.8766 80.5435 50.8393 80.4494 50.83C79.1682 50.7212 76.9247 50.6179 76.2785 50.0736C76.1995 50.0085 76.1129 49.9946 76.0189 50.0318C74.7828 50.5212 73.5007 50.8114 72.1725 50.9026C72.0709 50.9101 71.9797 50.9436 71.8988 51.0031C70.8208 51.7846 66.4044 51.5781 66.0206 50.1183C65.9096 49.6996 65.7403 49.6578 65.5126 49.9927L64.4064 51.6172C64.388 51.6427 64.3772 51.6727 64.3754 51.7037L64.35 52.2256C64.3443 52.3242 64.2926 52.3838 64.1947 52.4043C61.9626 52.8369 60.2468 51.3939 58.8951 49.9062C58.6241 49.6066 58.5432 49.6503 58.6524 50.0374C58.9882 51.218 58.8725 52.5131 59.1688 53.7273C59.3974 54.6679 60.6588 56.8869 60.0577 57.8945C59.8244 58.2871 59.4002 58.3941 58.785 58.2155C57.9516 57.9717 57.359 57.4544 57.0071 56.6636C57.0024 56.6543 56.9952 56.6464 56.9864 56.6407C56.9775 56.6351 56.9674 56.6319 56.9571 56.6316C56.9468 56.6314 56.9367 56.6339 56.9281 56.6391C56.9195 56.6442 56.9127 56.6518 56.9084 56.6608C56.8933 56.6906 56.8783 56.7194 56.8632 56.7473C56.8504 56.7727 56.8465 56.8021 56.8519 56.8311C56.9422 57.2051 56.8755 57.5158 56.6516 57.7633C56.2255 58.235 55.8276 57.8945 55.4071 57.6489C54.1823 56.9288 54.4589 55.7118 54.4222 54.5618C54.4203 54.4669 54.3902 54.3813 54.3319 54.3051C53.6716 53.4258 53.1438 52.8648 52.8729 51.6451C52.8625 51.5998 52.8404 51.558 52.8087 51.5238C52.7771 51.4895 52.737 51.464 52.6923 51.4497C51.5767 51.098 50.8562 50.3146 50.5307 49.0995C50.4818 48.9209 50.3633 48.7897 50.1751 48.706C50.066 48.6576 50.0368 48.6874 50.0876 48.7953C50.509 49.6903 50.6699 50.6393 50.5702 51.6423C50.5683 51.672 50.5533 51.686 50.525 51.6841C50.4931 51.6841 50.4761 51.6693 50.4742 51.6395C50.3783 50.4784 50.2852 49.4931 49.718 48.6166C49.2297 47.8574 47.562 47.2406 47.3757 46.6154C47.362 46.5706 47.3614 46.523 47.3739 46.4778C47.3863 46.4327 47.4114 46.3919 47.4463 46.36C47.4812 46.3281 47.5245 46.3064 47.5714 46.2973C47.6182 46.2881 47.6668 46.292 47.7115 46.3083C47.9693 46.407 48.1941 46.5447 48.386 46.7214C48.9617 47.2555 49.6389 47.7709 50.4178 48.2677C50.6962 48.4445 50.8919 48.7088 51.0048 49.0604C51.2795 49.9183 51.8222 50.6012 52.6331 51.1092C52.6638 51.1285 52.699 51.1397 52.7354 51.1416C52.7718 51.1435 52.808 51.1361 52.8407 51.1201C52.8733 51.1041 52.9012 51.0801 52.9217 51.0503C52.9422 51.0205 52.9545 50.986 52.9576 50.9501C52.9726 50.7565 53.0178 50.5788 53.0931 50.417C53.1022 50.3979 53.1151 50.3807 53.1309 50.3666C53.1467 50.3524 53.1651 50.3415 53.1851 50.3345C53.2051 50.3275 53.2262 50.3245 53.2472 50.3257C53.2682 50.3269 53.2887 50.3323 53.3075 50.3416C53.8127 50.5872 53.5107 51.0924 53.2765 51.4413C53.2258 51.5165 53.2066 51.6095 53.2229 51.7009C53.3696 52.5857 53.8409 53.2137 54.4222 53.9059C55.4466 55.1229 53.903 57.2693 56.1944 57.688C56.2722 57.7018 56.3524 57.6846 56.4175 57.6402C56.4825 57.5957 56.5271 57.5276 56.5415 57.4507C56.7447 56.3863 56.6553 55.3517 56.2734 54.3469C56.17 54.0752 55.9442 53.7664 55.5962 53.4202C54.5323 52.3624 54.1767 50.5872 53.9227 49.1833C53.8956 49.0314 53.8093 48.8968 53.6828 48.8092L50.5504 46.6293C50.4816 46.5819 50.4287 46.515 50.3989 46.4374C50.369 46.3598 50.3634 46.2752 50.3829 46.1944C50.4024 46.1137 50.4461 46.0406 50.5082 45.9848C50.5703 45.9289 50.6479 45.8928 50.731 45.8813C50.9681 45.8478 51.1854 45.8552 51.3829 45.9036C51.4224 45.9148 51.4403 45.9381 51.4365 45.9734V45.9762C51.4365 45.9799 51.4187 45.9808 51.3829 45.979C51.2211 45.9734 51.049 45.9948 50.8665 46.0432C50.8153 46.0566 50.7693 46.0845 50.734 46.1234C50.6987 46.1624 50.6756 46.2108 50.6676 46.2627C50.6595 46.3147 50.6668 46.368 50.6886 46.4162C50.7104 46.4644 50.7457 46.5055 50.7903 46.5344L54.1005 48.639C54.1535 48.6721 54.1984 48.7163 54.2321 48.7684C54.2657 48.8205 54.2873 48.8792 54.2952 48.9404C54.4589 50.2355 54.9753 52.555 56.2029 53.317C56.28 53.3635 56.3402 53.4268 56.3835 53.5068C57.1454 54.9331 57.0946 58.062 59.451 57.8247C59.5216 57.8174 59.5899 57.7958 59.6516 57.7611C59.7132 57.7264 59.7669 57.6794 59.8091 57.6232C59.8513 57.567 59.8812 57.5028 59.8968 57.4346C59.9124 57.3665 59.9134 57.2959 59.8997 57.2274C59.5441 55.4662 58.7032 54.0985 58.6693 52.2061C58.6552 51.3743 58.5818 50.0206 58.1726 49.3144C57.2357 47.7123 56.6036 46.5288 54.775 46.2358C53.4204 46.0181 52.0235 45.9008 50.7423 45.2756C50.6577 45.2328 50.5777 45.2412 50.5025 45.3007C49.289 46.2441 47.418 45.4794 46.2638 44.7174C46.1773 44.6616 46.1002 44.6718 46.0324 44.7481C45.2112 45.6775 44.5114 46.4005 43.3544 46.152C43.0345 46.0851 42.885 46.2125 42.9057 46.5344L42.917 46.727C42.9264 46.8667 42.9899 46.9973 43.094 47.0915C43.1982 47.1857 43.335 47.2361 43.4757 47.2322C44.0702 47.2155 44.6835 47.1252 45.3157 46.9615C46.8677 46.5596 47.1443 49.0353 47.2882 50.0597C47.2935 50.0966 47.3082 50.1316 47.3309 50.1614C47.3536 50.1911 47.3836 50.2147 47.418 50.2299C49.464 51.1203 52.1731 53.5207 51.9868 55.9909C51.8401 57.9615 50.0227 57.9978 48.6004 57.1074C48.4857 57.0348 48.4067 57.0618 48.3634 57.1883C48.0953 57.9671 47.5761 58.623 46.6617 58.1262C45.4972 57.4972 45.3194 56.511 46.1284 55.1675C46.166 55.1043 46.2074 55.1015 46.2526 55.1591L46.3005 55.2178C46.3175 55.2382 46.3203 55.2606 46.309 55.2848C45.7954 56.3956 45.6853 57.688 47.2459 57.9503C47.3381 57.9652 47.4199 57.9419 47.4914 57.8805C47.7924 57.6107 48.0135 57.2851 48.1546 56.9036C48.1866 56.8162 48.1659 56.7427 48.0925 56.6831C47.3334 56.0607 46.7379 55.3657 45.928 54.774C44.9149 54.0315 44.1276 52.8704 43.0298 52.3345C41.9462 51.8042 40.8513 51.298 39.7451 50.8161C38.8533 50.4281 37.9982 50.3918 36.813 50.4365C35.6927 50.4756 33.7201 50.2467 32.834 49.4065C31.5077 48.1533 31.1239 46.8917 30.1983 45.4208C30.1456 45.337 30.0779 45.3231 29.9951 45.3789C27.4299 47.1178 24.766 48.0026 22.8272 50.5398C21.103 52.7978 19.7202 54.6874 17.5276 55.8514C16.2802 56.5129 13.8195 57.3586 12.1884 58.6007C12.1827 58.6044 11.7058 59.0045 10.7576 59.8009C10.1311 60.3284 8.30813 61.777 7.52644 61.8524C7.37029 61.8673 7.24612 61.8487 7.15393 61.7966C7.05442 61.7418 6.98063 61.6505 6.94843 61.5425C6.91624 61.4344 6.92822 61.3182 6.98179 61.2188C8.3561 58.6509 12.7104 56.7417 15.2022 55.3517C16.6772 54.5274 18.0496 53.3216 19.3195 51.7344C20.5349 50.2178 21.2319 49.3703 21.4106 49.1916C22.7558 47.8481 24.2787 46.7661 25.9794 45.9455C26.239 45.8208 26.2475 45.8357 26.0048 45.9902C23.8093 47.3718 21.9214 48.6836 20.3326 50.791C18.8228 52.7922 17.0676 54.7544 15.0583 55.8458C12.1347 57.4395 9.67961 58.6984 7.8679 60.7247C7.30538 61.3537 7.39663 61.4681 8.14163 61.0681C9.64857 60.2586 11.0455 58.9244 12.3774 57.8554C12.8797 57.4554 13.7715 56.9846 15.0527 56.4431C17.6122 55.3657 19.1587 54.4837 20.7644 52.474C21.896 51.0589 22.9204 49.4931 24.3822 48.3208C25.5222 47.4053 27.063 46.6405 28.4374 45.8897C28.9284 45.6217 29.2981 45.3789 29.5464 45.1612C29.9283 44.8225 29.8634 44.6485 29.3517 44.6392C28.2774 44.6188 27.1835 44.696 26.0697 44.8709C23.5055 45.2691 20.96 45.765 18.4334 46.3586C17.9612 46.4684 17.5718 46.4405 17.2651 46.2749C17.2064 46.2431 17.1554 46.1993 17.1155 46.1461C17.0756 46.093 17.0477 46.032 17.0338 45.9671C17.0199 45.9022 17.0202 45.835 17.0348 45.7701C17.0494 45.7052 17.0779 45.6442 17.1184 45.591C18.6535 43.5842 21.5178 42.5068 23.9786 42.3505C25.6662 42.2444 27.2192 42.637 28.6377 43.5283C29.0911 43.813 29.5445 44.0987 29.9979 44.3852C30.0769 44.4355 30.1371 44.5025 30.1785 44.5862C30.7335 45.7064 31.3327 46.8033 31.9761 47.877C32.9074 49.4345 34.0842 49.9285 36.0962 50.0429C36.1846 50.0485 36.195 50.0225 36.1273 49.9648C35.3051 49.2763 34.6166 48.4538 34.0616 47.4974C34.017 47.4213 33.9927 47.3353 33.9907 47.2474C33.9888 47.1595 34.0093 47.0726 34.0504 46.9946C34.0915 46.9167 34.1518 46.8502 34.2258 46.8015C34.2998 46.7528 34.385 46.7233 34.4736 46.7159C36.4179 46.5456 36.971 48.0528 37.304 49.8336C37.3121 49.8759 37.3344 49.9144 37.3676 49.9432C37.4007 49.9719 37.4429 49.9893 37.4875 49.9927C39.3274 50.1099 40.5296 50.7435 42.4034 51.5948C43.8454 52.248 44.613 53.0351 45.6684 54.1515C45.7945 54.2837 45.9591 54.3758 46.1623 54.4279C46.245 54.4483 46.3165 54.4874 46.3767 54.5451L48.3126 56.4208C48.386 56.4915 48.4452 56.4812 48.4904 56.3901C48.5036 56.3659 48.5158 56.3417 48.5271 56.3175C48.5384 56.297 48.5374 56.2784 48.5243 56.2617C48.1743 55.7704 47.9599 55.4327 47.8808 55.2485C47.5902 54.5618 48.18 53.4035 49.0435 53.5263C49.8308 53.638 51.3716 55.0503 51.6369 55.6755C51.7366 55.91 51.7799 55.9007 51.7667 55.6476C51.6538 53.4314 49.4019 51.3911 47.5055 50.4784C47.4867 50.4697 47.466 50.4659 47.4454 50.4672C47.4247 50.4686 47.4048 50.475 47.3876 50.4859C47.3703 50.4968 47.3562 50.5119 47.3468 50.5296C47.3373 50.5473 47.3327 50.5672 47.3334 50.5872C47.3616 51.8879 47.0992 53.1281 46.546 54.3078C46.5329 54.3358 46.5141 54.346 46.4896 54.3385H46.4868C46.4567 54.3274 46.4463 54.306 46.4557 54.2743C46.8875 52.8843 47.26 51.9353 47.054 50.4449C47.047 50.3912 47.0275 50.34 46.9971 50.2954C46.9667 50.2508 46.9263 50.214 46.879 50.1881C45.6317 49.4996 44.4615 48.6864 43.3685 47.7486C42.4852 46.9922 40.8146 46.6628 39.714 46.1772C39.6933 46.1679 39.6867 46.152 39.6943 46.1297H39.6971C39.7065 46.1018 39.7225 46.0916 39.7451 46.099L42.4147 46.9754C42.6122 47.0406 42.711 46.9699 42.711 46.7633V46.4005C42.7091 46.2218 42.6216 46.1092 42.4485 46.0627C41.6301 45.8478 40.1571 45.1165 41.0545 44.0503C41.5032 43.5172 44.1981 41.4461 44.4493 43.1627C44.4603 43.2368 44.4454 43.3126 44.407 43.3776L43.1625 45.5101C43.1389 45.5501 43.126 45.5953 43.125 45.6416C43.124 45.6878 43.1348 45.7336 43.1565 45.7746C43.1782 45.8156 43.2101 45.8505 43.2491 45.876C43.2882 45.9015 43.3331 45.9167 43.3798 45.9204C44.3411 46.0004 45.0824 45.6273 45.6035 44.8011C45.9111 44.3155 45.7869 43.6623 46.5912 43.386C46.689 43.3525 46.7633 43.3795 46.8141 43.4669C46.8405 43.5097 46.8489 43.559 46.8395 43.6149C46.832 43.6577 46.8038 43.7042 46.7549 43.7544C46.595 43.9163 46.4633 44.0847 46.3598 44.2596C46.3466 44.2826 46.3382 44.3079 46.3352 44.3342C46.3321 44.3604 46.3345 44.387 46.3422 44.4123C46.3498 44.4376 46.3626 44.4611 46.3797 44.4814C46.3968 44.5017 46.4178 44.5184 46.4416 44.5304C47.6269 45.1305 49.3144 45.9008 50.3924 44.7872C50.4262 44.7516 50.4713 44.7284 50.5204 44.7214C50.5696 44.7143 50.6199 44.7237 50.6633 44.7481C52.0912 45.5715 54.14 45.7278 55.7598 46.1213C56.629 46.3363 56.9846 46.7159 57.47 47.5197C58.6749 49.5182 61.1526 52.1307 63.5175 52.1782C63.6793 52.1819 63.7884 52.1493 63.8448 52.0805C63.8602 52.061 63.8707 52.0382 63.8756 52.014C63.8805 51.9898 63.8796 51.9648 63.8731 51.9409C63.8665 51.9171 63.8544 51.8951 63.8377 51.8767C63.8211 51.8583 63.8003 51.844 63.7771 51.8349C63.2804 51.6423 61.8751 50.4672 62.3548 49.828C62.4715 49.6698 62.4705 49.5135 62.352 49.3591C61.3248 48.0138 60.386 46.621 59.5356 45.1807C58.6919 43.7516 57.8255 42.8417 56.327 42.4119C53.7007 41.6583 51.3942 40.7362 49.4075 39.6458C49.3078 39.59 49.2674 39.6188 49.2862 39.7323C49.5439 41.1707 49.876 42.5914 50.2823 43.9945C50.2955 44.0428 50.2899 44.0717 50.2654 44.081H50.2626C50.2212 44.0977 50.1911 44.0856 50.1723 44.0447C49.4687 42.5896 49.0727 41.0991 48.9842 39.5733C48.9759 39.4369 48.9262 39.3062 48.8415 39.1986C48.7569 39.091 48.6413 39.0114 48.5101 38.9704C48.0041 38.8122 47.5018 38.6791 47.0032 38.5712C43.154 37.7311 39.2032 37.0584 35.5093 35.6796C34.657 35.3614 33.658 35.2693 32.5772 35.2637C31.5519 35.2581 30.5331 35.1734 29.521 35.0097C27.9294 34.7548 26.9408 34.6329 26.5551 34.644C25.1366 34.6887 23.7886 35.0627 22.5112 35.7661C20.1661 37.0612 17.9142 38.5656 15.3518 39.4086C13.9069 39.8849 12.4677 40.3762 11.0342 40.8823C9.72665 41.3438 7.7268 42.3728 5.03462 43.9693C4.93679 44.027 4.81451 44.1238 4.66776 44.2596C4.55112 44.3657 4.53325 44.3555 4.61415 44.2289C4.63672 44.1936 4.66871 44.161 4.71009 44.1312C7.73903 42.0453 10.5874 40.6078 13.2551 39.8189C15.6368 39.1155 17.7806 38.186 19.6864 37.0305C22.0202 35.6126 23.894 34.39 26.4479 34.284C26.8298 34.2672 27.8814 34.3854 29.6028 34.6385C30.7448 34.8078 31.8962 34.8878 33.0569 34.8785C33.8669 34.8729 34.832 35.0236 35.577 35.3083C37.9456 36.209 40.3913 36.8137 42.9141 37.1226C43.0027 37.1332 43.0828 37.1774 43.1371 37.2454C43.1709 37.2845 43.2057 37.318 43.2415 37.3459C43.2735 37.3701 43.3149 37.3868 43.3657 37.3961C45.072 37.6883 46.6806 38.0493 48.1913 38.4791C48.5299 38.5759 48.5826 38.4931 48.3493 38.2307C47.2713 37.011 44.9968 37.0249 43.2217 37.1561C43.2029 37.158 43.1935 37.1496 43.1935 37.131L43.1851 37.0584C43.1813 37.0063 43.2048 36.9775 43.2556 36.9719C44.7146 36.81 47.5507 36.8267 48.5101 38.1637C50.161 40.4608 54.4194 41.3708 56.8124 42.2388C58.1613 42.7301 58.8979 43.3916 59.6626 44.6923C61.0228 47.0006 62.6342 49.1274 64.1863 51.3073C64.2521 51.4004 64.3199 51.4013 64.3895 51.3101C65.078 50.3974 65.2756 49.6885 66.4241 49.0102C67.3027 48.491 68.819 47.9095 70.9732 47.2657C72.7059 46.7466 73.671 45.9427 75.5137 45.9176C76.2042 45.9083 77.8626 46.0181 80.4889 46.2469C80.8181 46.2749 81.2753 46.1399 81.8604 45.8422C82.4728 45.5296 83.7793 45.5771 84.4735 45.4319C85.9034 45.1342 87.0801 44.7434 88.0039 44.2596C90.1072 43.1599 92.1117 42.3737 94.0175 41.9011C95.3241 41.5773 96.8169 41.5103 98.2336 41.3847C99.5147 41.2712 101.064 40.7865 102.881 39.9305C103.505 39.6374 104.366 39.3472 105.04 39.3388C106.589 39.3165 107.589 39.2104 108.043 39.0206C109.333 38.481 110.295 38.1525 110.927 38.0353C113.052 37.6418 116.342 37.692 118.986 36.8295C119.374 36.703 120.466 36.2062 122.263 35.339C126.379 33.3517 130.765 32.5404 135.422 32.9051C135.425 32.9051 135.429 32.9066 135.432 32.9092C135.434 32.9118 135.436 32.9154 135.436 32.9191C135.436 32.9228 135.434 32.9263 135.432 32.929C135.429 32.9316 135.425 32.9331 135.422 32.9331C134.355 33.0252 133.144 32.9833 132.207 33.067C129.083 33.3424 126.345 34.0049 123.995 35.0543C122.545 35.7019 120.623 36.9077 118.902 37.438C116.531 38.1665 114.325 38.267 111.562 38.4568C110.244 38.5461 108.683 39.4337 107.38 39.6291C105.955 39.8412 104.718 39.6012 103.265 40.232C100.675 41.3568 98.3662 41.7141 95.5696 41.8983C93.9949 42.0016 92.7476 42.4984 91.3677 42.9478C90.0893 43.3637 88.9097 44.0866 87.9023 44.5639C85.8902 45.5212 84.5441 45.7752 82.817 46.0292C82.0212 46.1493 81.0166 46.7968 80.2406 46.7159C77.9867 46.4851 76.398 46.3688 75.4742 46.367C73.9221 46.3614 72.5732 47.2015 71.261 47.5895C70.1294 47.9244 66.8672 48.7785 66.1871 49.6354C66.1193 49.7173 66.1137 49.8029 66.1701 49.8922C67.0252 51.2459 70.4991 51.4832 71.7069 50.724C71.7188 50.7165 71.7286 50.706 71.735 50.6935C71.7415 50.681 71.7444 50.6671 71.7436 50.6531C71.7427 50.6391 71.738 50.6256 71.7301 50.6141C71.7222 50.6025 71.7112 50.5932 71.6984 50.5872C71.2394 50.3751 71.0324 50.015 71.0776 49.507C71.0818 49.4558 71.0988 49.4064 71.1271 49.3632C71.1555 49.3201 71.1942 49.2845 71.24 49.2597C71.2858 49.2348 71.3371 49.2215 71.3895 49.2208C71.4419 49.2201 71.4937 49.2322 71.5404 49.2558C71.9486 49.4661 72.1772 49.8029 72.2261 50.2662C72.2543 50.5416 72.4048 50.6477 72.6776 50.5844L75.6323 49.9034C75.8467 49.855 75.9032 49.734 75.8016 49.5405C75.5344 49.04 75.3858 48.5115 75.3557 47.9551C75.354 47.9141 75.3614 47.8733 75.3775 47.8356C75.3936 47.798 75.418 47.7644 75.4488 47.7374C75.5448 47.6556 75.6407 47.6416 75.7367 47.6956C75.7931 47.7272 75.8364 47.7895 75.8665 47.8826C76.0678 48.4985 76.2258 49.0679 76.3406 49.5908C76.4064 49.8922 76.5936 50.0643 76.9022 50.1071L80.1672 50.5649C80.3779 50.5928 80.4315 50.5156 80.328 50.3332C79.8991 49.5759 80.0656 49.0028 80.8275 48.6139C80.8899 48.5817 80.9594 48.5652 81.0297 48.5659C81.1001 48.5665 81.1693 48.5843 81.2314 48.6176C81.2934 48.6509 81.3464 48.6987 81.3857 48.7569C81.425 48.8151 81.4494 48.882 81.4568 48.9516C81.5133 49.521 81.4343 50.0615 81.2198 50.5733C81.1464 50.7482 81.1793 50.9008 81.3186 51.031C82.3777 52.0135 83.6364 52.4089 85.0944 52.2173C85.1255 52.2135 85.1549 52.201 85.179 52.1812C85.2032 52.1614 85.2211 52.1351 85.2309 52.1053C85.2406 52.0756 85.2417 52.0436 85.234 52.013C85.2264 51.9825 85.2102 51.9546 85.1875 51.9326C84.8395 51.6032 84.625 51.205 84.5441 50.7379C84.529 50.6561 84.5563 50.5909 84.6259 50.5426C84.7426 50.4625 84.831 50.4821 84.8912 50.6012C85.0699 50.9603 85.2778 51.3008 85.5149 51.6227C85.5769 51.7046 85.6541 51.7232 85.7463 51.6786C86.0285 51.5483 86.2787 51.3725 86.4969 51.151C86.6324 51.0133 86.6653 50.8552 86.5957 50.6765C86.3398 50.0178 85.9635 49.4373 85.4669 48.9348C85.339 48.8064 85.3653 48.7543 85.5459 48.7785C85.623 48.7897 85.6955 48.8148 85.7632 48.8539C85.8516 48.9041 85.9457 48.919 86.0454 48.8986C86.8148 48.7367 87.5862 48.7264 88.3594 48.8679C88.5513 48.9032 88.6952 48.8371 88.7912 48.6697C89.1881 47.9849 89.6133 47.3122 90.0667 46.6517C90.1815 46.4842 90.3094 46.4377 90.4505 46.5121C90.5073 46.5426 90.5497 46.5941 90.5687 46.6556C90.5876 46.7171 90.5817 46.7838 90.5521 46.8415C90.1401 47.6453 89.8325 48.4966 89.1129 49.0911C88.7479 49.3926 88.4836 49.6605 88.3199 49.895C87.4592 51.1147 86.2288 52.4015 84.7896 52.915C84.771 52.9219 84.7544 52.9332 84.7412 52.9478C84.728 52.9625 84.7188 52.9801 84.7143 52.999C84.7098 53.0179 84.7102 53.0375 84.7155 53.056C84.7207 53.0745 84.7307 53.0913 84.7445 53.1048L87.335 55.6867C87.399 55.7518 87.4724 55.7639 87.5552 55.723C88.6021 55.2066 89.5193 54.6316 90.7525 54.7209C91.076 54.7451 91.4025 54.7675 91.7317 54.7879C91.7754 54.7906 91.8192 54.7843 91.8605 54.7694C91.9018 54.7545 91.9396 54.7314 91.9716 54.7014C93.0834 53.6463 95.2338 53.0574 96.6645 52.4601C97.7341 52.0135 97.8836 51.3799 98.0812 50.1992C98.3154 48.7785 99.1253 45.5073 101.411 46.2581C103.598 46.9782 102.664 51.0115 101.964 52.4071C101.959 52.4177 101.957 52.4299 101.958 52.4419C101.96 52.4539 101.965 52.465 101.974 52.4736C101.982 52.4821 101.993 52.4875 102.004 52.4891C102.016 52.4907 102.027 52.4884 102.038 52.4824C104.072 51.4608 106.733 50.2467 109.047 50.2439C111.452 50.2411 113.345 50.8189 116.3 51.5362C120.981 52.6713 125.717 52.8006 130.509 51.9242C130.557 51.9155 130.608 51.9197 130.654 51.9366C130.701 51.9534 130.742 51.9822 130.774 52.02C130.805 52.0578 130.826 52.1032 130.834 52.1516C130.842 52.2 130.837 52.2496 130.819 52.2954C130.432 53.2612 126.524 54.1822 125.573 54.3051C124.668 54.4223 122.995 54.4316 120.553 54.333C117.791 54.2213 115.038 53.9915 112.293 53.6435C110.154 53.3728 107.433 51.8739 105.424 53.1886C105.347 53.2392 105.29 53.3128 105.26 53.3979C105.138 53.7403 104.977 53.9645 104.778 54.0706C103.293 54.8549 101.668 55.4048 100.646 56.8841C100.457 57.1576 100.003 57.3949 99.6191 57.5093C98.4565 57.8582 97.8215 58.7151 96.8846 59.0975C95.7389 59.5664 94.5386 59.7069 93.2838 59.519C93.1841 59.5041 93.1192 59.5441 93.0891 59.639C92.8671 60.3535 92.5247 61.0029 92.0619 61.5872C92.0035 61.6616 91.9847 61.7445 92.0054 61.8356C92.1334 62.3901 92.06 62.9186 91.7853 63.421C91.7383 63.5066 91.7185 63.5978 91.7261 63.6945C91.8079 64.571 91.5511 66.8039 90.2727 66.6532C88.3199 66.4243 88.3622 63.0554 88.4328 61.7268C88.4836 60.8029 88.8448 60.0353 89.206 59.1924C89.3471 58.8649 89.2681 58.7998 88.969 58.997C88.2719 59.4576 87.9728 60.5433 87.1036 60.7694C87.0209 60.7917 86.9757 60.8438 86.9682 60.9257C86.8553 62.165 86.4866 63.3205 85.862 64.3923C85.8142 64.474 85.7926 64.5675 85.7999 64.6603C85.893 65.7963 85.7068 66.8737 84.5385 67.3817C83.9195 67.6534 83.3184 67.6822 82.7352 67.4682C82.6468 67.4366 82.5781 67.4598 82.5292 67.538C82.3354 67.8487 82.0786 68.0627 81.7588 68.18ZM25.669 44.4913C26.7489 44.3257 27.7676 44.2382 28.7252 44.2289C29.0262 44.2252 29.0497 44.1443 28.7957 43.9861C25.3755 41.876 21.2356 42.5542 18.1766 44.9714C17.9057 45.1835 17.6828 45.4124 17.5078 45.658C17.4792 45.6984 17.4628 45.7461 17.4606 45.7954C17.4584 45.8446 17.4705 45.8935 17.4953 45.9363C17.5202 45.9791 17.5569 46.0139 17.6011 46.0368C17.6453 46.0597 17.6951 46.0697 17.7449 46.0655C18.138 46.0302 18.5068 45.9688 18.8511 45.8813C21.0993 45.3045 23.3719 44.8411 25.669 44.4913ZM42.9141 45.4933L44.1869 43.3441C44.225 43.28 44.2438 43.2064 44.2411 43.132C44.2384 43.0577 44.2143 42.9856 44.1716 42.9244C44.1289 42.8631 44.0695 42.8152 44.0002 42.7862C43.9309 42.7572 43.8547 42.7484 43.7805 42.7608C42.678 42.9413 41.7957 43.4716 41.1335 44.3517C41.0839 44.4178 41.0488 44.4934 41.0303 44.5736C41.0118 44.6538 41.0103 44.7369 41.0259 44.8177C41.0416 44.8985 41.074 44.9752 41.1212 45.043C41.1684 45.1108 41.2292 45.1681 41.3 45.2114L42.0901 45.6943C42.4344 45.9046 42.7091 45.8376 42.9141 45.4933ZM96.6109 52.7169C95.2197 53.2835 93.47 53.7859 92.2735 54.6874C92.2552 54.7007 92.2414 54.7191 92.2338 54.7402C92.2262 54.7614 92.2253 54.7843 92.2311 54.806C92.2369 54.8277 92.2491 54.8472 92.2663 54.8619C92.2834 54.8766 92.3046 54.8858 92.3271 54.8884C95.0306 55.2652 97.9598 54.4 100.406 53.303C101.193 52.9513 101.718 52.4238 101.981 51.7204C102.368 50.6989 102.972 47.3383 101.58 46.6656C100.672 46.2265 99.9644 46.4209 99.4583 47.249C98.8092 48.3171 98.4725 49.0363 98.448 49.4065C98.3464 51.0226 97.9965 52.1531 96.6109 52.7169ZM37.0247 49.8196L36.2881 47.8184C36.2267 47.6496 36.1203 47.5003 35.9803 47.3863C35.8402 47.2724 35.6716 47.1979 35.4923 47.1708L34.8094 47.0703C34.3842 47.0071 34.2845 47.1559 34.5103 47.5169C35.3362 48.8344 36.0765 49.6187 36.7312 49.8699C36.8422 49.9127 36.9174 49.9183 36.9569 49.8866C37.0058 49.8513 37.0284 49.8289 37.0247 49.8196ZM43.6874 47.5141C43.6593 47.517 43.6327 47.5282 43.6112 47.5464C43.5898 47.5646 43.5745 47.5889 43.5674 47.616C43.5604 47.643 43.5619 47.6716 43.5717 47.6978C43.5815 47.724 43.5993 47.7466 43.6225 47.7625L46.7605 49.9871C46.7838 50.0039 46.8117 50.0131 46.8405 50.0134C46.8693 50.0137 46.8975 50.0051 46.9211 49.9888C46.9447 49.9725 46.9626 49.9493 46.9722 49.9225C46.9819 49.8957 46.9829 49.8666 46.975 49.8392L46.2328 47.3104C46.2236 47.2786 46.2031 47.2513 46.1751 47.2333C46.1471 47.2154 46.1135 47.208 46.0804 47.2127L43.6874 47.5141ZM80.4071 49.5098C80.3954 49.5321 80.3887 49.5565 80.3872 49.5815C80.3858 49.6065 80.3896 49.6315 80.3986 49.655L80.6751 50.3555C80.6897 50.3911 80.7154 50.421 80.7485 50.441C80.7815 50.461 80.8202 50.4699 80.8588 50.4665C80.8974 50.463 80.9339 50.4474 80.9628 50.4219C80.9917 50.3964 81.0116 50.3624 81.0194 50.3248L81.217 49.3228C81.2218 49.2981 81.2213 49.2726 81.2154 49.2481C81.2096 49.2235 81.1986 49.2005 81.1831 49.1805L80.994 48.9348C80.9755 48.9108 80.951 48.8918 80.923 48.8796C80.895 48.8675 80.8643 48.8626 80.8338 48.8654C80.8034 48.8682 80.7741 48.8786 80.7488 48.8956C80.7235 48.9126 80.703 48.9357 80.6893 48.9628L80.4071 49.5098ZM88.2437 49.0158L86.2147 49.0102C86.1803 49.01 86.1468 49.02 86.1184 49.039C86.09 49.0581 86.068 49.0852 86.0553 49.117C86.0425 49.1488 86.0396 49.1838 86.0469 49.2174C86.0542 49.2511 86.0714 49.282 86.0962 49.3061C86.5176 49.708 86.8017 50.189 86.9484 50.7491C86.9879 50.9073 87.0585 50.9222 87.1601 50.7938L88.3707 49.2698C88.3891 49.2468 88.4006 49.2192 88.4036 49.1901C88.4067 49.1609 88.4013 49.1314 88.3881 49.105C88.3748 49.0785 88.3543 49.0561 88.3288 49.0403C88.3033 49.0246 88.2738 49.0161 88.2437 49.0158ZM71.8841 50.3178C71.9117 50.3001 71.9135 50.2456 71.8893 50.1663C71.865 50.087 71.8165 49.9895 71.7546 49.8951C71.7239 49.8484 71.6908 49.8038 71.6572 49.764C71.6237 49.7242 71.5902 49.6899 71.5589 49.6631C71.5275 49.6363 71.4988 49.6174 71.4744 49.6077C71.4501 49.5979 71.4305 49.5974 71.4168 49.6062C71.3892 49.6239 71.3873 49.6784 71.4116 49.7577C71.4359 49.837 71.4843 49.9345 71.5463 50.0289C71.577 50.0756 71.6101 50.1201 71.6436 50.1599C71.6772 50.1998 71.7106 50.2341 71.742 50.2609C71.7734 50.2877 71.802 50.3066 71.8264 50.3163C71.8508 50.3261 71.8704 50.3266 71.8841 50.3178ZM63.6096 51.3064C63.6273 51.2926 63.6331 51.264 63.6264 51.2222C63.6198 51.1805 63.6009 51.1264 63.5708 51.063C63.5408 50.9997 63.5001 50.9283 63.4512 50.8531C63.4024 50.7778 63.3462 50.7 63.2859 50.6243C63.2256 50.5485 63.1624 50.4762 63.1 50.4115C63.0375 50.3468 62.9769 50.291 62.9217 50.2472C62.8665 50.2034 62.8178 50.1725 62.7783 50.1563C62.7389 50.1401 62.7094 50.1389 62.6916 50.1527C62.6739 50.1665 62.6682 50.1951 62.6748 50.2369C62.6815 50.2786 62.7004 50.3327 62.7304 50.3961C62.7605 50.4594 62.8011 50.5308 62.85 50.6061C62.8989 50.6813 62.9551 50.7591 63.0153 50.8348C63.0756 50.9106 63.1388 50.9829 63.2013 51.0476C63.2637 51.1123 63.3243 51.1681 63.3795 51.2119C63.4347 51.2557 63.4834 51.2866 63.5229 51.3028C63.5623 51.319 63.5918 51.3203 63.6096 51.3064ZM95.7558 58.9161C95.6147 58.6704 95.4878 58.5058 95.2225 58.369C93.947 57.7131 91.8587 56.8227 91.5454 55.2792C91.5266 55.1861 91.4721 55.1275 91.3818 55.1033C90.157 54.7851 88.9266 55.3769 87.8543 56.0272C87.8193 56.0481 87.7912 56.0785 87.7731 56.1147C87.755 56.151 87.7477 56.1916 87.7522 56.2318C87.7566 56.2719 87.7726 56.31 87.7982 56.3415C87.8238 56.373 87.8579 56.3966 87.8966 56.4096C88.3745 56.5715 88.8062 56.8106 89.1919 57.1269C89.2411 57.1672 89.2817 57.2169 89.3111 57.273C89.3406 57.3291 89.3583 57.3904 89.3633 57.4534C89.3683 57.5164 89.3605 57.5798 89.3402 57.6397C89.32 57.6997 89.2878 57.755 89.2455 57.8024L89.1298 57.9308C88.9116 58.1764 88.6924 58.1773 88.4723 57.9336C88.0415 57.4572 87.6981 56.9278 87.4423 56.3454C87.4065 56.2617 87.3482 56.2421 87.2673 56.2868C86.4602 56.7464 85.7331 57.3056 85.0859 57.9643C84.6062 58.4527 84.1377 58.3522 83.9769 59.1812C83.753 60.3461 83.5028 61.5072 83.2262 62.6646C82.913 63.9709 83.1105 65.319 82.8509 66.6113C82.6929 67.4003 83.0023 67.6748 83.7793 67.4347L84.3324 67.2617C85.1057 67.0235 85.5036 66.5043 85.5261 65.7042C85.5563 64.6231 85.4735 64.1337 85.2778 64.236C84.9806 64.1356 84.6946 64.0518 84.4199 63.9848C84.3965 63.9794 84.3753 63.9674 84.3589 63.9501C84.3425 63.9328 84.3315 63.9111 84.3273 63.8875C84.3231 63.8639 84.3259 63.8394 84.3354 63.8171C84.3448 63.7947 84.3604 63.7754 84.3804 63.7615C84.8 63.4731 85.2035 63.4824 85.591 63.7894C85.6109 63.8048 85.634 63.8155 85.6586 63.8207C85.6832 63.8259 85.7086 63.8256 85.7331 63.8197C85.7575 63.8137 85.7803 63.8024 85.7997 63.7866C85.8191 63.7707 85.8346 63.7507 85.845 63.728C86.1404 63.0805 86.3981 62.4264 86.6183 61.7659C86.8384 61.1109 86.6728 60.6764 86.1216 60.4624C86.0708 60.4419 86.0313 60.4149 86.0031 60.3814C85.9485 60.3144 85.9316 60.267 85.9523 60.2391C85.968 60.2153 85.9885 60.195 86.0125 60.1793C86.0364 60.1635 86.0634 60.1527 86.0919 60.1475C86.1203 60.1423 86.1496 60.1428 86.1779 60.1489C86.2063 60.1551 86.2332 60.1667 86.257 60.1833C87.1657 60.8057 87.4112 60.4373 87.9587 59.6557C88.6303 58.6928 89.3499 58.2183 90.569 58.5783C91.7232 58.9161 92.9508 59.0277 94.136 59.2343C94.5198 59.3012 94.9995 59.2464 95.5752 59.0696C95.6599 59.0435 95.7427 59.0482 95.8236 59.0835C96.577 59.4045 97.5986 58.3885 98.0699 58.0341C98.7951 57.487 100.02 57.406 100.533 56.6831C101.538 55.2708 103.039 54.7823 104.51 54.0176C104.916 53.8073 105.113 53.477 105.099 53.0267C105.098 52.9355 105.143 52.8909 105.235 52.8927C105.483 52.8927 105.596 52.8983 105.816 52.7755C107.546 51.7986 110.422 53.1272 112.434 53.3561C115.613 53.7189 118.804 53.9236 122.006 53.9701C124.549 54.0064 126.705 53.8473 128.621 52.9513C129.238 52.6611 129.209 52.5671 128.533 52.6694C126.599 52.9616 124.542 53.0174 122.362 52.8369C119.762 52.621 117.785 52.3363 116.433 51.9828C114.431 51.4581 112.949 51.1073 111.988 50.9305C110.116 50.5844 108.703 50.5053 107.749 50.6933C106.44 50.9519 104.606 51.5958 102.246 52.6248C101.312 53.0323 100.175 53.7915 98.9983 54.1934C96.752 54.961 94.4267 55.5722 92.0365 55.1899C91.991 55.1824 91.9444 55.1878 91.902 55.2055C91.8596 55.2233 91.8231 55.2526 91.7966 55.2901C91.7701 55.3276 91.7548 55.3719 91.7523 55.4178C91.7498 55.4638 91.7602 55.5095 91.7825 55.5499C92.5501 56.9148 94.232 57.6154 95.5668 58.3076C95.8095 58.4341 95.9167 58.6276 95.8885 58.8882C95.8734 59.0333 95.8292 59.0426 95.7558 58.9161ZM80.2349 58.8295C80.252 58.8651 80.2781 58.8957 80.3108 58.9182C80.3435 58.9407 80.3815 58.9544 80.4212 58.9579C81.661 59.0528 82.8368 58.8277 83.9487 58.2825C84.1113 58.2029 84.2426 58.0701 84.3212 57.9057C84.7219 57.0488 85.5882 55.7788 86.4659 55.2875C86.5712 55.228 86.5806 55.1573 86.4941 55.0754L84.5159 53.1997C84.4312 53.1197 84.3334 53.0965 84.2224 53.13C82.6139 53.6101 81.8858 53.9087 81.2254 55.5276C81.1916 55.6095 81.217 55.6606 81.3016 55.6811C82.4079 55.9491 81.5415 58.7318 80.2152 58.6342C80.1625 58.6304 80.1474 58.6518 80.17 58.6984L80.2349 58.8295ZM49.0294 55.4578C48.9654 55.6402 48.8742 55.8058 48.7557 55.9546C48.6616 56.0719 48.6804 56.1668 48.8121 56.2393L50.4347 57.1381C50.5237 57.1879 50.6273 57.2056 50.7278 57.1883C50.8282 57.171 50.9191 57.1197 50.985 57.0432C51.5043 56.4487 51.4732 55.7285 50.8552 55.1759C50.3811 54.7516 49.241 53.4677 48.544 53.8473C47.7877 54.2576 48.005 55.2624 48.4706 55.8207C48.5685 55.9379 48.6484 55.9277 48.7105 55.79C48.7726 55.6523 48.8535 55.5276 48.9532 55.4159C49.0529 55.3024 49.0783 55.3164 49.0294 55.4578ZM81.3919 54.4893L80.1418 55.4076C80.141 55.4078 80.1402 55.4083 80.1396 55.4089C80.139 55.4095 80.1386 55.4103 80.1383 55.4111C80.138 55.4119 80.138 55.4127 80.1381 55.4136C80.1382 55.4144 80.1385 55.4152 80.139 55.4159L80.1531 55.4327C80.1848 55.4751 80.232 55.5056 80.2919 55.5224C80.3518 55.5392 80.4232 55.542 80.5021 55.5306C80.5809 55.5192 80.6657 55.4938 80.7516 55.456C80.8375 55.4181 80.9227 55.3684 81.0025 55.3099L81.0476 55.2764C81.1277 55.2176 81.2006 55.1511 81.2622 55.0805C81.3239 55.0099 81.373 54.9368 81.4068 54.8652C81.4407 54.7936 81.4585 54.725 81.4593 54.6634C81.4602 54.6017 81.444 54.5483 81.4117 54.506L81.3976 54.4893C81.3967 54.4888 81.3957 54.4885 81.3948 54.4885C81.3938 54.4885 81.3928 54.4888 81.3919 54.4893ZM86.8835 55.7341L86.6211 55.4718C86.5978 55.4489 86.5664 55.4361 86.5336 55.4361C86.5008 55.4361 86.4694 55.4489 86.4461 55.4718L86.4094 55.508C85.8668 56.0411 85.3673 56.5728 85.0206 56.9863C84.674 57.3998 84.5087 57.6612 84.561 57.7131L84.6034 57.7577C84.6558 57.8095 84.9215 57.6475 85.3423 57.3073C85.763 56.967 86.3042 56.4765 86.8468 55.9435L86.8835 55.9072C86.9066 55.8842 86.9196 55.8531 86.9196 55.8207C86.9196 55.7882 86.9066 55.7571 86.8835 55.7341ZM80.6893 55.9686C80.7041 55.9284 80.7077 55.8851 80.6997 55.8431C80.6917 55.8011 80.6723 55.762 80.6437 55.73C80.6151 55.698 80.5782 55.6742 80.5371 55.6612C80.4959 55.6481 80.452 55.6463 80.4099 55.656L78.9029 56.016C78.8519 56.0282 78.8063 56.0567 78.7731 56.097L78.3047 56.6692C78.2665 56.7162 78.2479 56.7759 78.2526 56.836C78.2573 56.8962 78.285 56.9523 78.3301 56.9929L79.5435 58.0927C79.5727 58.1188 79.6079 58.1375 79.6461 58.147C79.6843 58.1565 79.7242 58.1565 79.7624 58.1472C79.8006 58.1378 79.8359 58.1193 79.8652 58.0932C79.8944 58.0671 79.9167 58.0344 79.9301 57.9978L80.6893 55.9686ZM81.0053 55.8151L80.1108 58.2546C80.1086 58.2606 80.1076 58.267 80.108 58.2734C80.1084 58.2798 80.1101 58.2861 80.113 58.2918C80.1159 58.2976 80.1199 58.3027 80.1249 58.3068C80.1298 58.311 80.1356 58.3141 80.1418 58.316L80.1757 58.3299C80.2775 58.3663 80.3879 58.3761 80.5006 58.3588C80.6133 58.3415 80.7261 58.2973 80.8325 58.2289C80.9389 58.1605 81.0368 58.0691 81.1207 57.96C81.2046 57.8509 81.2728 57.7262 81.3214 57.5931L81.5048 57.0906C81.5537 56.9575 81.5821 56.8184 81.5883 56.6814C81.5945 56.5443 81.5784 56.412 81.5409 56.292C81.5034 56.1719 81.4453 56.0666 81.3699 55.9818C81.2944 55.8971 81.2032 55.8348 81.1013 55.7983L81.0674 55.7872C81.0615 55.7849 81.0552 55.7839 81.0488 55.7841C81.0425 55.7843 81.0362 55.7857 81.0305 55.7883C81.0247 55.7909 81.0195 55.7946 81.0152 55.7992C81.0109 55.8038 81.0075 55.8092 81.0053 55.8151ZM50.1582 57.2386L48.7444 56.4319C48.7346 56.4263 48.7229 56.4244 48.7112 56.4264C48.6994 56.4284 48.6883 56.4343 48.6795 56.4431L48.6287 56.4989C48.608 56.5212 48.607 56.5436 48.6258 56.5659C49.036 57.0125 49.5421 57.2767 50.1441 57.3586C50.1572 57.3605 50.1685 57.3567 50.1779 57.3474L50.2316 57.3C50.241 57.2925 50.2165 57.2721 50.1582 57.2386ZM88.8589 57.8638L89.1693 57.554C89.1843 57.5384 89.1924 57.5176 89.1919 57.4962C89.1914 57.4747 89.1822 57.4543 89.1665 57.4395L89.1383 57.4116C88.8791 57.1598 88.6113 56.9376 88.3934 56.7938C88.1755 56.6499 88.0253 56.5961 87.9756 56.6441L87.9192 56.6999C87.8945 56.7238 87.8955 56.7722 87.9221 56.8425C87.9488 56.9127 88.0006 57.0033 88.0745 57.1091C88.1485 57.2149 88.2431 57.3338 88.353 57.459C88.4629 57.5842 88.5859 57.7132 88.715 57.8387L88.7432 57.8666C88.751 57.8739 88.7602 57.8797 88.7702 57.8835C88.7802 57.8873 88.7909 57.8891 88.8016 57.8889C88.8124 57.8886 88.823 57.8863 88.8328 57.882C88.8426 57.8777 88.8515 57.8715 88.8589 57.8638ZM79.9029 58.6365C79.9268 58.6043 79.9033 58.5396 79.8375 58.4567C79.7717 58.3738 79.6689 58.2795 79.5519 58.1945C79.494 58.1524 79.4343 58.1138 79.3762 58.0811C79.3181 58.0483 79.2628 58.0219 79.2135 58.0034C79.1641 57.9849 79.1217 57.9747 79.0886 57.9733C79.0555 57.9719 79.0323 57.9794 79.0205 57.9954C78.9966 58.0276 79.0201 58.0923 79.0859 58.1752C79.1517 58.2581 79.2545 58.3524 79.3715 58.4374C79.4294 58.4795 79.4891 58.5181 79.5472 58.5509C79.6053 58.5837 79.6605 58.61 79.7099 58.6285C79.7592 58.647 79.8017 58.6572 79.8348 58.6586C79.8679 58.66 79.8911 58.6525 79.9029 58.6365ZM90.4787 63.2089C90.451 63.1866 90.4286 63.1586 90.4129 63.1269C90.3972 63.0951 90.3887 63.0603 90.3879 63.0248C90.3871 62.9893 90.394 62.9539 90.4083 62.9212C90.4225 62.8884 90.4436 62.859 90.4703 62.8349C90.5737 62.7437 90.7045 62.7279 90.8625 62.7874C91.0413 62.8581 91.2369 62.9195 91.4495 62.9716C91.5511 62.9958 91.6122 62.9568 91.6329 62.8544C91.695 62.5455 91.7006 62.2329 91.6498 61.9166C91.6292 61.7845 91.5511 61.7147 91.4156 61.7072L90.8851 61.6793C90.8665 61.6783 90.8483 61.6735 90.8317 61.6653C90.8151 61.657 90.8003 61.6455 90.7884 61.6313C90.7765 61.6172 90.7677 61.6008 90.7624 61.5831C90.7572 61.5654 90.7558 61.5469 90.7581 61.5286L90.7666 61.4588C90.7797 61.336 90.8465 61.2588 90.9669 61.2272C91.1701 61.1713 91.3733 61.1862 91.5765 61.2718C91.9603 61.4318 92.219 61.3165 92.3525 60.9257L92.852 59.4687C92.8592 59.4488 92.862 59.4276 92.8601 59.4066C92.8582 59.3855 92.8516 59.365 92.841 59.3465C92.8303 59.328 92.8156 59.3119 92.7981 59.2992C92.7805 59.2866 92.7604 59.2778 92.7391 59.2733L89.9905 58.7123C89.9024 58.6943 89.8108 58.707 89.7315 58.7483C89.6522 58.7896 89.5901 58.8568 89.5559 58.9384C89.3565 59.4148 89.1684 59.9107 88.9915 60.4261C88.5259 61.791 88.6727 63.2926 88.8899 64.6854C89.0395 65.654 90.0639 67.2365 91.1193 65.961C91.4241 65.5925 91.4551 64.6938 91.52 64.0211C91.5878 63.3261 90.8399 63.5048 90.4787 63.2089ZM81.8011 63.3708C81.7597 63.3429 81.739 63.3066 81.739 63.2619C81.739 63.2191 81.7654 63.1773 81.8181 63.1363C82.0739 62.9298 82.3044 62.8832 82.5094 62.9968C82.7352 63.1233 82.8754 63.061 82.9299 62.8097L83.7737 58.8798C83.7944 58.7867 83.7586 58.7542 83.6665 58.7821C82.4417 59.1589 81.5302 59.5692 80.1305 59.1701C80.0402 59.1459 79.9903 59.1794 79.9809 59.2705C79.9104 59.9879 79.7157 68.8833 81.8971 67.7306C82.8114 67.2477 82.7691 64.3002 82.6421 63.4099C82.635 63.3622 82.6158 63.3172 82.5861 63.279C82.5565 63.2408 82.5174 63.2108 82.4727 63.1918C82.428 63.1727 82.3792 63.1653 82.3307 63.1703C82.2823 63.1752 82.236 63.1924 82.1962 63.2201L81.9817 63.368C81.9215 63.4089 81.8613 63.4098 81.8011 63.3708Z" fill="#151515"/>
</svg>
