<svg width="60" height="47" viewBox="0 0 60 47" fill="none" xmlns="http://www.w3.org/2000/svg">
<g style="mix-blend-mode:multiply">
<path d="M2.37209 47V43.5524C7.2093 41.77 11 38.9556 13.7442 35.1093C16.4884 31.3099 17.8605 27.3463 17.8605 23.2186C17.8605 22.3273 17.7209 21.6707 17.4419 21.2485C17.2558 20.9671 17.0465 20.8263 16.814 20.8263C16.5814 20.8263 16.2326 20.9905 15.7674 21.3189C14.2791 22.3977 12.3953 22.9371 10.1163 22.9371C7.46512 22.9371 5.11628 21.8348 3.06977 19.6302C1.02326 17.4726 0 14.8927 0 11.8907C0 8.74801 1.18605 5.98054 3.55814 3.58833C5.88372 1.19611 8.72093 0 12.0698 0C15.9767 0 19.3488 1.61826 22.186 4.85479C25.0233 8.09132 26.4419 12.4301 26.4419 17.8713C26.4419 24.2036 24.5116 29.8792 20.6512 34.8982C16.7907 39.9172 10.6977 43.9511 2.37209 47ZM35.9302 47V43.5524C40.7674 41.77 44.5581 38.9556 47.3023 35.1093C50.0465 31.3099 51.4186 27.3463 51.4186 23.2186C51.4186 22.3273 51.2791 21.6707 51 21.2485C50.814 20.9671 50.6047 20.8263 50.3721 20.8263C50.1395 20.8263 49.7907 20.9905 49.3256 21.3189C47.8372 22.3977 45.9535 22.9371 43.6744 22.9371C41.0233 22.9371 38.6744 21.8348 36.6279 19.6302C34.5814 17.4726 33.5581 14.8927 33.5581 11.8907C33.5581 8.74801 34.7442 5.98054 37.1163 3.58833C39.4419 1.19611 42.2791 0 45.6279 0C49.5349 0 52.907 1.61826 55.7442 4.85479C58.5814 8.09132 60 12.4301 60 17.8713C60 24.2036 58.0698 29.8792 54.2093 34.8982C50.3488 39.9172 44.2558 43.9511 35.9302 47Z" fill="#E7E1DD"/>
</g>
</svg>
