<svg width="30" height="25" viewBox="0 0 30 25" fill="none" xmlns="http://www.w3.org/2000/svg">
<path d="M12.9422 0.565277C13.0003 0.623322 13.0464 0.692252 13.0779 0.768126C13.1093 0.843999 13.1255 0.92533 13.1255 1.00746C13.1255 1.0896 13.1093 1.17093 13.0779 1.2468C13.0464 1.32268 13.0003 1.39161 12.9422 1.44965L2.75938 11.6325L28.75 11.6325C28.9158 11.6325 29.0747 11.6983 29.1919 11.8155C29.3092 11.9327 29.375 12.0917 29.375 12.2575C29.375 12.4232 29.3092 12.5822 29.1919 12.6994C29.0747 12.8166 28.9158 12.8825 28.75 12.8825L2.75938 12.8825L12.9422 23.0653C13.0003 23.1233 13.0463 23.1923 13.0777 23.2682C13.1092 23.344 13.1254 23.4253 13.1254 23.5075C13.1254 23.5896 13.1092 23.6709 13.0777 23.7468C13.0463 23.8226 13.0003 23.8916 12.9422 23.9497C12.8841 24.0077 12.8152 24.0538 12.7393 24.0852C12.6634 24.1166 12.5821 24.1328 12.5 24.1328C12.4179 24.1328 12.3366 24.1166 12.2607 24.0852C12.1848 24.0538 12.1159 24.0077 12.0578 23.9497L0.807816 12.6997C0.749705 12.6416 0.703606 12.5727 0.672154 12.4968C0.640701 12.4209 0.624512 12.3396 0.624512 12.2575C0.624512 12.1753 0.640701 12.094 0.672154 12.0181C0.703606 11.9423 0.749705 11.8733 0.807816 11.8153L12.0578 0.565277C12.1159 0.507166 12.1848 0.461067 12.2607 0.429614C12.3365 0.398161 12.4179 0.381973 12.5 0.381973C12.5821 0.381973 12.6635 0.398161 12.7393 0.429614C12.8152 0.461067 12.8841 0.507166 12.9422 0.565277Z" fill="#151515"/>
</svg>
