<svg width="30" height="25" viewBox="0 0 30 25" fill="none" xmlns="http://www.w3.org/2000/svg">
<path d="M17.0578 23.9503C16.9997 23.8923 16.9536 23.8234 16.9221 23.7475C16.8907 23.6716 16.8745 23.5903 16.8745 23.5082C16.8745 23.426 16.8907 23.3447 16.9221 23.2688C16.9536 23.1929 16.9997 23.124 17.0578 23.066L27.2406 12.8832L1.25 12.8832C1.08424 12.8832 0.925265 12.8173 0.808055 12.7001C0.690845 12.5829 0.624997 12.4239 0.624997 12.2582C0.624997 12.0924 0.690845 11.9334 0.808055 11.8162C0.925265 11.699 1.08424 11.6332 1.25 11.6332L27.2406 11.6332L17.0578 1.45035C16.9997 1.39228 16.9537 1.32334 16.9223 1.24747C16.8908 1.1716 16.8746 1.09028 16.8746 1.00816C16.8746 0.926038 16.8908 0.84472 16.9223 0.76885C16.9537 0.692979 16.9997 0.624041 17.0578 0.565972C17.1159 0.507903 17.1848 0.461841 17.2607 0.430414C17.3366 0.398987 17.4179 0.382812 17.5 0.382812C17.5821 0.382812 17.6634 0.398987 17.7393 0.430414C17.8152 0.461841 17.8841 0.507903 17.9422 0.565972L29.1922 11.816C29.2503 11.874 29.2964 11.9429 29.3278 12.0188C29.3593 12.0947 29.3755 12.176 29.3755 12.2582C29.3755 12.3403 29.3593 12.4216 29.3278 12.4975C29.2964 12.5734 29.2503 12.6423 29.1922 12.7003L17.9422 23.9503C17.8841 24.0085 17.8152 24.0546 17.7393 24.086C17.6635 24.1175 17.5821 24.1337 17.5 24.1337C17.4179 24.1337 17.3365 24.1175 17.2607 24.086C17.1848 24.0546 17.1159 24.0085 17.0578 23.9503Z" fill="#151515"/>
</svg>
