<svg width="40" height="41" viewBox="0 0 40 41" fill="none" xmlns="http://www.w3.org/2000/svg">
<path d="M13.5635 1.47168C7.95123 3.07476 2.69529 8.3293 1.09179 13.9401C0.37912 16.2556 -0.0662988 18.4821 0.200952 18.9274C0.735454 19.9071 9.28749 18.6603 12.6727 17.1462C14.1871 16.4338 16.0578 14.5635 16.7705 13.0495C18.1959 9.84332 19.443 1.11544 18.4631 0.581081C18.1068 0.3139 15.8797 0.759201 13.5635 1.47168Z" fill="#737373"/>
<path d="M21.3138 0.936934C20.7793 1.91659 21.5811 7.88362 22.8282 12.1585C23.3627 13.6725 24.699 15.6318 25.9462 16.4334C28.3514 17.9474 38.3288 19.9067 39.665 19.1052C40.734 18.3927 38.507 11.2679 36.2799 8.41798C35.2109 7.17113 33.3401 5.30087 32.0929 4.23215C29.1532 1.91659 22.1156 -0.220846 21.3138 0.936934Z" fill="#737373"/>
<path d="M0.200907 21.9547C-0.868097 23.825 2.51708 31.1279 5.90226 34.6013C9.28744 37.9855 16.6814 41.3698 18.4631 40.3011C19.443 39.7667 18.1958 31.0389 16.7705 27.8327C16.0578 26.3187 14.187 24.4484 12.6726 23.7359C9.28744 22.2219 0.735409 20.9751 0.200907 21.9547Z" fill="#737373"/>
<path d="M32.4492 22.2226C27.2824 23.1132 24.0753 25.1616 22.9173 28.2787C21.581 31.663 20.6902 39.7674 21.581 40.3018C21.9373 40.4799 24.1644 40.1237 26.3915 39.5003C31.9147 37.8972 37.527 32.2864 39.1305 26.7647C40.8231 20.8867 40.734 20.7977 32.4492 22.2226Z" fill="#737373"/>
</svg>
