<svg width="24" height="25" viewBox="0 0 24 25" fill="none" xmlns="http://www.w3.org/2000/svg">
<path d="M12 0.501953C5.37058 0.501953 0 5.87331 0 12.502C0 19.1306 5.37135 24.502 12 24.502C18.6294 24.502 24 19.1306 24 12.502C24 5.87331 18.6286 0.501953 12 0.501953ZM17.8939 8.72311L15.9244 18.0041C15.7788 18.6622 15.3871 18.8217 14.8405 18.512L11.8405 16.3009L10.3935 17.6945C10.2341 17.854 10.0986 17.9894 9.7889 17.9894L10.0018 14.936L15.5613 9.91305C15.8036 9.70015 15.5079 9.57937 15.1881 9.79228L8.31716 14.1177L5.35587 13.1933C4.71252 12.9905 4.69781 12.55 5.49135 12.2403L17.0609 7.7786C17.5982 7.58505 18.0674 7.90944 17.8932 8.72234L17.8939 8.72311Z" fill="#E7E1DD"/>
</svg>
