<svg width="24" height="25" viewBox="0 0 24 25" fill="none" xmlns="http://www.w3.org/2000/svg">
<path d="M12 0.501953C5.3725 0.501953 0 5.87445 0 12.502C0 19.1295 5.3725 24.502 12 24.502C18.6275 24.502 24 19.1295 24 12.502C24 5.87445 18.6275 0.501953 12 0.501953ZM16.615 14.0407C16.615 14.0407 17.6763 15.0882 17.9375 15.5745C17.945 15.5845 17.9487 15.5945 17.9513 15.5995C18.0575 15.7782 18.0825 15.917 18.03 16.0207C17.9425 16.1932 17.6425 16.2782 17.54 16.2857H15.665C15.535 16.2857 15.2625 16.252 14.9325 16.0245C14.6788 15.847 14.4288 15.5557 14.185 15.272C13.8213 14.8495 13.5063 14.4845 13.1888 14.4845C13.1484 14.4844 13.1083 14.4907 13.07 14.5032C12.83 14.5807 12.5225 14.9232 12.5225 15.8357C12.5225 16.1207 12.2975 16.2845 12.1388 16.2845H11.28C10.9875 16.2845 9.46375 16.182 8.11375 14.7582C6.46125 13.0145 4.97375 9.51695 4.96125 9.48445C4.8675 9.2582 5.06125 9.13695 5.2725 9.13695H7.16625C7.41875 9.13695 7.50125 9.2907 7.55875 9.42695C7.62625 9.5857 7.87375 10.217 8.28 10.927C8.93875 12.0845 9.3425 12.5545 9.66625 12.5545C9.72696 12.5537 9.78658 12.5383 9.84 12.5095C10.2625 12.2745 10.1838 10.7682 10.165 10.4557C10.165 10.397 10.1637 9.78195 9.9475 9.48695C9.7925 9.2732 9.52875 9.19195 9.36875 9.16195C9.43351 9.07259 9.51883 9.00013 9.6175 8.9507C9.9075 8.8057 10.43 8.78445 10.9488 8.78445H11.2375C11.8 8.79195 11.945 8.8282 12.1488 8.87945C12.5613 8.9782 12.57 9.24445 12.5338 10.1557C12.5225 10.4145 12.5113 10.707 12.5113 11.052C12.5113 11.127 12.5075 11.207 12.5075 11.292C12.495 11.7557 12.48 12.282 12.8075 12.4982C12.8502 12.525 12.8996 12.5393 12.95 12.5395C13.0638 12.5395 13.4062 12.5395 14.3337 10.9482C14.6198 10.436 14.8684 9.9038 15.0775 9.3557C15.0963 9.3232 15.1513 9.2232 15.2163 9.18445C15.2642 9.16 15.3174 9.14756 15.3713 9.1482H17.5975C17.84 9.1482 18.0063 9.18445 18.0375 9.2782C18.0925 9.42695 18.0275 9.8807 17.0112 11.257L16.5575 11.8557C15.6363 13.0632 15.6363 13.1245 16.615 14.0407Z" fill="#E7E1DD"/>
</svg>
