<svg width="24" height="25" viewBox="0 0 24 25" fill="none" xmlns="http://www.w3.org/2000/svg">
<path d="M8.13805 1.0834C4.77069 2.04525 1.61713 5.19797 0.655024 8.56444C0.227423 9.95378 -0.0398281 11.2897 0.120523 11.5569C0.441224 12.1447 5.57244 11.3966 7.60355 10.4881C8.5122 10.0606 9.63466 8.93849 10.0623 8.03008C10.9175 6.10638 11.6658 0.869655 11.0778 0.549038C10.864 0.38873 9.52776 0.65591 8.13805 1.0834Z" fill="#E7E1DD"/>
<path d="M12.7882 0.762941C12.4675 1.35074 12.9486 4.93095 13.6969 7.49588C14.0176 8.40429 14.8193 9.57988 15.5676 10.0608C17.0108 10.9692 22.9972 12.1448 23.799 11.6639C24.4404 11.2364 23.1041 6.96152 21.7679 5.25157C21.1265 4.50346 20.004 3.38131 19.2557 2.74007C17.4919 1.35074 13.2693 0.0682726 12.7882 0.762941Z" fill="#E7E1DD"/>
<path d="M0.120544 13.3736C-0.520858 14.4958 1.51025 18.8775 3.54136 20.9615C5.57246 22.9921 10.0088 25.0227 11.0778 24.3814C11.6658 24.0608 10.9175 18.8241 10.0623 16.9004C9.63468 15.992 8.51223 14.8698 7.60357 14.4423C5.57246 13.5339 0.441245 12.7858 0.120544 13.3736Z" fill="#E7E1DD"/>
<path d="M19.4695 13.5332C16.3694 14.0675 14.4452 15.2966 13.7503 17.1668C12.9486 19.1974 12.414 24.0601 12.9486 24.3807C13.1624 24.4876 14.4986 24.2738 15.8349 23.8998C19.1488 22.9379 22.5161 19.5715 23.4782 16.2584C24.4938 12.7316 24.4403 12.6782 19.4695 13.5332Z" fill="#E7E1DD"/>
</svg>
