<svg width="24" height="25" viewBox="0 0 24 25" fill="none" xmlns="http://www.w3.org/2000/svg">
<path d="M15.75 12.502C15.75 13.4965 15.3549 14.4503 14.6517 15.1536C13.9484 15.8569 12.9946 16.252 12 16.252C11.0054 16.252 10.0516 15.8569 9.34835 15.1536C8.64509 14.4503 8.25 13.4965 8.25 12.502C8.25 12.2882 8.2725 12.0795 8.31125 11.877H7V16.8732C7 17.2207 7.28125 17.502 7.62875 17.502H16.3725C16.539 17.5016 16.6986 17.4352 16.8163 17.3174C16.9339 17.1995 17 17.0397 17 16.8732V11.877H15.6888C15.7275 12.0795 15.75 12.2882 15.75 12.502ZM12 15.002C12.3284 15.0019 12.6535 14.9371 12.9569 14.8114C13.2603 14.6856 13.5359 14.5014 13.768 14.2691C14.0002 14.0368 14.1843 13.7611 14.3099 13.4577C14.4355 13.1543 14.5001 12.8291 14.5 12.5007C14.4999 12.1723 14.4352 11.8472 14.3094 11.5438C14.1837 11.2404 13.9994 10.9648 13.7671 10.7327C13.5349 10.5005 13.2592 10.3164 12.9557 10.1908C12.6523 10.0652 12.3271 10.0006 11.9987 10.0007C11.3355 10.0009 10.6996 10.2645 10.2307 10.7336C9.76188 11.2026 9.49858 11.8387 9.49875 12.502C9.49892 13.1652 9.76253 13.8011 10.2316 14.27C10.7007 14.7388 11.3368 15.0021 12 15.002ZM15 9.87695H16.4988C16.5983 9.87695 16.6938 9.83748 16.7644 9.76719C16.8349 9.6969 16.8747 9.60152 16.875 9.50195V8.0032C16.875 7.90342 16.8354 7.80771 16.7648 7.73715C16.6942 7.66659 16.5985 7.62695 16.4988 7.62695H15C14.9002 7.62695 14.8045 7.66659 14.734 7.73715C14.6634 7.80771 14.6238 7.90342 14.6238 8.0032V9.50195C14.625 9.7082 14.7937 9.87695 15 9.87695ZM12 0.501953C8.8174 0.501953 5.76515 1.76623 3.51472 4.01667C1.26428 6.26711 0 9.31936 0 12.502C0 15.6846 1.26428 18.7368 3.51472 20.9872C5.76515 23.2377 8.8174 24.502 12 24.502C13.5759 24.502 15.1363 24.1916 16.5922 23.5885C18.0481 22.9855 19.371 22.1015 20.4853 20.9872C21.5996 19.8729 22.4835 18.5501 23.0866 17.0942C23.6896 15.6382 24 14.0778 24 12.502C24 10.9261 23.6896 9.36566 23.0866 7.90975C22.4835 6.45385 21.5996 5.13097 20.4853 4.01667C19.371 2.90237 18.0481 2.01846 16.5922 1.4154C15.1363 0.812342 13.5759 0.501953 12 0.501953ZM18.25 17.3632C18.25 18.127 17.625 18.752 16.8612 18.752H7.13875C6.375 18.752 5.75 18.127 5.75 17.3632V7.6407C5.75 6.87695 6.375 6.25195 7.13875 6.25195H16.8612C17.625 6.25195 18.25 6.87695 18.25 7.6407V17.3632Z" fill="#E7E1DD"/>
</svg>
