<svg width="24" height="25" viewBox="0 0 24 25" fill="none" xmlns="http://www.w3.org/2000/svg">
<path fill-rule="evenodd" clip-rule="evenodd" d="M12 24.502C18.6274 24.502 24 19.1294 24 12.502C24 5.87454 18.6274 0.501953 12 0.501953C5.37258 0.501953 0 5.87454 0 12.502C0 19.1294 5.37258 24.502 12 24.502ZM14.36 6.50195C14.3598 7.19357 14.6109 7.8617 15.0667 8.38195C15.9733 9.42862 17.2267 9.36862 17.2267 9.36862V11.4286C16.1982 11.4304 15.1953 11.1085 14.36 10.5086V14.702C14.36 16.802 12.66 18.502 10.5667 18.502C8.61333 18.502 6.77333 16.922 6.77333 14.702C6.77333 12.422 8.78667 10.6353 11.0867 10.942V13.0486C9.94667 12.6953 8.84 13.5553 8.84 14.702C8.84 15.662 9.62667 16.4353 10.5733 16.4353C11.021 16.4352 11.4511 16.2615 11.7732 15.9506C12.0952 15.6397 12.2841 15.216 12.3 14.7686V6.50195H14.36Z" fill="#E7E1DD"/>
</svg>
