<svg width="24" height="25" viewBox="0 0 24 25" fill="none" xmlns="http://www.w3.org/2000/svg">
<g clip-path="url(#clip0_2403_2674)">
<g clip-path="url(#clip1_2403_2674)">
<path d="M18.8321 14.7168C19.1758 14.7168 19.504 14.7793 19.8165 14.9043C20.129 15.0293 20.4102 15.2168 20.6602 15.4668L23.2383 18.0449C23.4805 18.2871 23.6641 18.5645 23.7891 18.877C23.9141 19.1895 23.9805 19.5215 23.9883 19.873C23.9883 20.2168 23.9258 20.5449 23.8008 20.8574C23.6758 21.1699 23.4883 21.4512 23.2383 21.7012L23.0743 21.8652C22.6524 22.2871 22.2657 22.6621 21.9141 22.9902C21.5625 23.3184 21.1954 23.5918 20.8125 23.8105C20.4297 24.0293 20.004 24.2012 19.5352 24.3262C19.0665 24.4512 18.5079 24.5098 17.8594 24.502C16.8829 24.502 15.879 24.3496 14.8477 24.0449C13.8165 23.7402 12.793 23.3184 11.7774 22.7793C10.7618 22.2402 9.76177 21.5996 8.77739 20.8574C7.79302 20.1152 6.86724 19.3066 6.00005 18.4316C5.13286 17.5566 4.32817 16.627 3.58599 15.6426C2.8438 14.6582 2.21099 13.6582 1.68755 12.6426C1.16411 11.627 0.750049 10.6074 0.445361 9.58398C0.140674 8.56055 -0.00776367 7.57617 4.88281e-05 6.63086C4.88281e-05 5.98242 0.0547363 5.42773 0.164111 4.9668C0.273486 4.50586 0.441455 4.08398 0.668018 3.70117C0.89458 3.31836 1.16802 2.95508 1.48833 2.61133C1.80864 2.26758 2.18364 1.88086 2.61333 1.45117L2.80083 1.26367C3.04302 1.02148 3.32036 0.833984 3.63286 0.701172C3.94536 0.568359 4.27739 0.501953 4.62895 0.501953C4.9727 0.501953 5.30083 0.568359 5.61333 0.701172C5.92583 0.833984 6.20708 1.02148 6.45708 1.26367L9.03521 3.8418C9.27739 4.08398 9.46099 4.36133 9.58599 4.67383C9.71099 4.98633 9.77739 5.31836 9.78521 5.66992C9.78521 6.01367 9.72661 6.31836 9.60942 6.58398C9.49224 6.84961 9.34771 7.0957 9.17583 7.32227C9.00395 7.54883 8.81646 7.74805 8.61333 7.91992C8.4102 8.0918 8.2188 8.26758 8.03911 8.44727C7.85942 8.62695 7.71489 8.79883 7.60552 8.96289C7.49614 9.12695 7.43755 9.31836 7.42974 9.53711C7.42974 9.83398 7.53521 10.0879 7.74614 10.2988L14.2032 16.7559C14.4141 16.9668 14.668 17.0723 14.9649 17.0723C15.168 17.0723 15.3555 17.0137 15.5274 16.8965C15.6993 16.7793 15.875 16.6348 16.0547 16.4629C16.2344 16.291 16.4102 16.1035 16.5821 15.9004C16.754 15.6973 16.9532 15.5059 17.1797 15.3262C17.4063 15.1465 17.6485 15.002 17.9063 14.8926C18.1641 14.7832 18.4727 14.7246 18.8321 14.7168ZM17.8594 23.002C18.4219 23.002 18.8907 22.9512 19.2657 22.8496C19.6407 22.748 19.9844 22.5957 20.2969 22.3926C20.6094 22.1895 20.9063 21.9395 21.1875 21.6426C21.4688 21.3457 21.8008 21.0098 22.1836 20.6348C22.3946 20.4238 22.5 20.1699 22.5 19.873C22.5 19.7324 22.4454 19.5684 22.336 19.3809C22.2266 19.1934 22.0782 18.9902 21.8907 18.7715C21.7032 18.5527 21.504 18.3379 21.293 18.127C21.0821 17.916 20.8633 17.7051 20.6368 17.4941C20.4102 17.2832 20.211 17.0996 20.0391 16.9434C19.8672 16.7871 19.7227 16.6504 19.6055 16.5332C19.3946 16.3223 19.1368 16.2168 18.8321 16.2168C18.629 16.2168 18.4415 16.2754 18.2696 16.3926C18.0977 16.5098 17.9258 16.6543 17.754 16.8262C17.5821 16.998 17.4063 17.1855 17.2266 17.3887C17.0469 17.5918 16.8438 17.7832 16.6172 17.9629C16.3907 18.1426 16.1485 18.2871 15.8907 18.3965C15.6329 18.5059 15.3243 18.5645 14.9649 18.5723C14.6211 18.5723 14.293 18.5098 13.9805 18.3848C13.668 18.2598 13.3868 18.0723 13.1368 17.8223L6.67974 11.3652C6.43755 11.123 6.25396 10.8457 6.12896 10.5332C6.00396 10.2207 5.93755 9.88867 5.92974 9.53711C5.92974 9.19336 5.98833 8.88867 6.10552 8.62305C6.22271 8.35742 6.36724 8.11133 6.53911 7.88477C6.71099 7.6582 6.89849 7.45898 7.10161 7.28711C7.30474 7.11523 7.49614 6.93555 7.67583 6.74805C7.85552 6.56055 8.00005 6.38867 8.10942 6.23242C8.2188 6.07617 8.27739 5.88867 8.28521 5.66992C8.28521 5.36523 8.17974 5.10742 7.9688 4.89648C7.86724 4.79492 7.73442 4.6543 7.57036 4.47461C7.4063 4.29492 7.22271 4.0957 7.01958 3.87695C6.81646 3.6582 6.60552 3.43945 6.38677 3.2207C6.16802 3.00195 5.94927 2.79883 5.73052 2.61133C5.51177 2.42383 5.31255 2.2793 5.13286 2.17773C4.95317 2.07617 4.7852 2.01758 4.62895 2.00195C4.33208 2.00195 4.07817 2.10742 3.86724 2.31836L2.87114 3.31445C2.58208 3.60352 2.33208 3.90039 2.12114 4.20508C1.91021 4.50977 1.75396 4.84961 1.65239 5.22461C1.55083 5.59961 1.49614 6.06836 1.48833 6.63086C1.48833 7.50586 1.62896 8.4082 1.91021 9.33789C2.19145 10.2676 2.58599 11.1973 3.0938 12.127C3.60161 13.0566 4.19927 13.9707 4.88677 14.8691C5.57427 15.7676 6.32427 16.623 7.13677 17.4355C7.94927 18.248 8.80474 18.9902 9.70317 19.6621C10.6016 20.334 11.5157 20.9199 12.4454 21.4199C13.375 21.9199 14.2969 22.3066 15.211 22.5801C16.125 22.8535 17.0079 22.9941 17.8594 23.002Z" fill="#FCFBFB"/>
</g>
</g>
<defs>
<clipPath id="clip0_2403_2674">
<rect width="24" height="24" fill="white" transform="translate(0 0.501953)"/>
</clipPath>
<clipPath id="clip1_2403_2674">
<rect width="24" height="24" fill="white" transform="translate(0 0.501953)"/>
</clipPath>
</defs>
</svg>
