<svg width="24" height="25" viewBox="0 0 24 25" fill="none" xmlns="http://www.w3.org/2000/svg">
<g clip-path="url(#clip0_2403_2683)">
<path d="M12 0.501953C12.6875 0.501953 13.3516 0.591797 13.9922 0.771484C14.6328 0.951172 15.2305 1.20117 15.7852 1.52148C16.3398 1.8418 16.8438 2.23242 17.2969 2.69336C17.75 3.1543 18.1406 3.66211 18.4688 4.2168C18.7969 4.77148 19.0508 5.36914 19.2305 6.00977C19.4102 6.65039 19.5 7.31445 19.5 8.00195C19.5 8.54102 19.4375 9.05273 19.3125 9.53711C19.1875 10.0215 19 10.5098 18.75 11.002L12 24.502L5.25 11.002C5.00781 10.5176 4.82422 10.0332 4.69922 9.54883C4.57422 9.06445 4.50781 8.54883 4.5 8.00195C4.5 7.31445 4.58984 6.65039 4.76953 6.00977C4.94922 5.36914 5.19922 4.77148 5.51953 4.2168C5.83984 3.66211 6.23047 3.1582 6.69141 2.70508C7.15234 2.25195 7.66016 1.86133 8.21484 1.5332C8.76953 1.20508 9.36719 0.951172 10.0078 0.771484C10.6484 0.591797 11.3125 0.501953 12 0.501953ZM17.5781 10.416V10.4043L17.5898 10.3926C17.7852 10.0254 17.9336 9.63867 18.0352 9.23242C18.1367 8.82617 18.1875 8.41602 18.1875 8.00195C18.1875 7.15039 18.0273 6.34961 17.707 5.59961C17.3867 4.84961 16.9414 4.19336 16.3711 3.63086C15.8008 3.06836 15.1445 2.62695 14.4023 2.30664C13.6602 1.98633 12.8594 1.82227 12 1.81445C11.1484 1.81445 10.3477 1.97461 9.59766 2.29492C8.84766 2.61523 8.19141 3.06055 7.62891 3.63086C7.06641 4.20117 6.625 4.85742 6.30469 5.59961C5.98438 6.3418 5.82031 7.14258 5.8125 8.00195C5.8125 8.41602 5.86328 8.82617 5.96484 9.23242C6.06641 9.63867 6.21484 10.0254 6.41016 10.3926V10.4043L6.42188 10.416L12 21.5723L17.5781 10.416ZM12 3.5957C12.6094 3.5957 13.1797 3.70898 13.7109 3.93555C14.2422 4.16211 14.7109 4.47852 15.1172 4.88477C15.5234 5.29102 15.8359 5.75586 16.0547 6.2793C16.2734 6.80273 16.3906 7.37695 16.4062 8.00195C16.4062 8.61133 16.293 9.18164 16.0664 9.71289C15.8398 10.2441 15.5234 10.7129 15.1172 11.1191C14.7109 11.5254 14.2461 11.8379 13.7227 12.0566C13.1992 12.2754 12.625 12.3926 12 12.4082C11.3906 12.4082 10.8203 12.2949 10.2891 12.0684C9.75781 11.8418 9.28906 11.5254 8.88281 11.1191C8.47656 10.7129 8.16406 10.248 7.94531 9.72461C7.72656 9.20117 7.60938 8.62695 7.59375 8.00195C7.59375 7.39258 7.70703 6.82227 7.93359 6.29102C8.16016 5.75977 8.47656 5.29102 8.88281 4.88477C9.28906 4.47852 9.75391 4.16602 10.2773 3.94727C10.8008 3.72852 11.375 3.61133 12 3.5957ZM12 11.0957C12.4297 11.0957 12.832 11.0176 13.207 10.8613C13.582 10.7051 13.9102 10.4824 14.1914 10.1934C14.4727 9.9043 14.6914 9.57617 14.8477 9.20898C15.0039 8.8418 15.0859 8.43945 15.0938 8.00195C15.0938 7.57227 15.0156 7.16992 14.8594 6.79492C14.7031 6.41992 14.4805 6.0918 14.1914 5.81055C13.9023 5.5293 13.5742 5.31055 13.207 5.1543C12.8398 4.99805 12.4375 4.91602 12 4.9082C11.5703 4.9082 11.168 4.98633 10.793 5.14258C10.418 5.29883 10.0898 5.52148 9.80859 5.81055C9.52734 6.09961 9.30859 6.42773 9.15234 6.79492C8.99609 7.16211 8.91406 7.56445 8.90625 8.00195C8.90625 8.43164 8.98438 8.83398 9.14062 9.20898C9.29688 9.58398 9.51953 9.91211 9.80859 10.1934C10.0977 10.4746 10.4258 10.6934 10.793 10.8496C11.1602 11.0059 11.5625 11.0879 12 11.0957Z" fill="#FCFBFB"/>
</g>
<defs>
<clipPath id="clip0_2403_2683">
<rect width="24" height="24" fill="white" transform="translate(0 0.501953)"/>
</clipPath>
</defs>
</svg>
