<svg width="25" height="25" viewBox="0 0 25 25" fill="none" xmlns="http://www.w3.org/2000/svg">
<path d="M17.1875 3.5C15.2516 3.5 13.5566 4.3325 12.5 5.73969C11.4434 4.3325 9.74844 3.5 7.8125 3.5C6.27146 3.50174 4.79404 4.11468 3.70436 5.20436C2.61468 6.29404 2.00174 7.77146 2 9.3125C2 15.875 11.7303 21.1869 12.1447 21.4062C12.2539 21.465 12.376 21.4958 12.5 21.4958C12.624 21.4958 12.7461 21.465 12.8553 21.4062C13.2697 21.1869 23 15.875 23 9.3125C22.9983 7.77146 22.3853 6.29404 21.2956 5.20436C20.206 4.11468 18.7285 3.50174 17.1875 3.5ZM12.5 19.8875C10.7881 18.89 3.5 14.3459 3.5 9.3125C3.50149 8.16921 3.95632 7.07317 4.76475 6.26475C5.57317 5.45632 6.66921 5.00149 7.8125 5C9.63594 5 11.1669 5.97125 11.8062 7.53125C11.8628 7.66881 11.9589 7.78646 12.0824 7.86926C12.2059 7.95207 12.3513 7.99627 12.5 7.99627C12.6487 7.99627 12.7941 7.95207 12.9176 7.86926C13.0411 7.78646 13.1372 7.66881 13.1937 7.53125C13.8331 5.96844 15.3641 5 17.1875 5C18.3308 5.00149 19.4268 5.45632 20.2353 6.26475C21.0437 7.07317 21.4985 8.16921 21.5 9.3125C21.5 14.3384 14.21 18.8891 12.5 19.8875Z" fill="#FCFBFB"/>
</svg>
