<svg width="40" height="41" viewBox="0 0 40 41" fill="none" xmlns="http://www.w3.org/2000/svg">
<path d="M26.25 20.502C26.25 22.1596 25.5915 23.7493 24.4194 24.9214C23.2473 26.0935 21.6576 26.752 20 26.752C18.3424 26.752 16.7527 26.0935 15.5806 24.9214C14.4085 23.7493 13.75 22.1596 13.75 20.502C13.75 20.1457 13.7875 19.7978 13.8521 19.4603H11.6667V27.7874C11.6667 28.3665 12.1354 28.8353 12.7146 28.8353H27.2875C27.5651 28.8347 27.8311 28.7241 28.0271 28.5276C28.2232 28.3312 28.3333 28.0649 28.3333 27.7874V19.4603H26.1479C26.2125 19.7978 26.25 20.1457 26.25 20.502V20.502ZM20 24.6686C20.5473 24.6685 21.0892 24.5605 21.5948 24.351C22.1004 24.1414 22.5598 23.8343 22.9467 23.4472C23.3336 23.0601 23.6405 22.6006 23.8498 22.0949C24.0591 21.5892 24.1668 21.0472 24.1667 20.4999C24.1665 19.9526 24.0586 19.4106 23.849 18.905C23.6394 18.3994 23.3323 17.9401 22.9452 17.5532C22.5581 17.1662 22.0986 16.8594 21.5929 16.6501C21.0872 16.4407 20.5452 16.3331 19.9979 16.3332C18.8926 16.3335 17.8326 16.7728 17.0512 17.5546C16.2698 18.3364 15.831 19.3966 15.8312 20.502C15.8315 21.6073 16.2709 22.6673 17.0527 23.4487C17.8345 24.2301 18.8947 24.6689 20 24.6686V24.6686ZM25 16.127H27.4979C27.6639 16.127 27.8231 16.0612 27.9406 15.944C28.0581 15.8269 28.1244 15.6679 28.125 15.502V13.004C28.125 12.8377 28.0589 12.6782 27.9413 12.5606C27.8237 12.443 27.6642 12.377 27.4979 12.377H25C24.8337 12.377 24.6742 12.443 24.5566 12.5606C24.439 12.6782 24.3729 12.8377 24.3729 13.004V15.502C24.375 15.8457 24.6562 16.127 25 16.127V16.127ZM20 0.501953C14.6957 0.501953 9.60859 2.60909 5.85786 6.35982C2.10714 10.1105 0 15.1976 0 20.502C0 25.8063 2.10714 30.8934 5.85786 34.6441C9.60859 38.3948 14.6957 40.502 20 40.502C22.6264 40.502 25.2272 39.9846 27.6537 38.9795C30.0802 37.9744 32.285 36.5013 34.1421 34.6441C35.9993 32.7869 37.4725 30.5821 38.4776 28.1556C39.4827 25.7291 40 23.1284 40 20.502C40 17.8755 39.4827 15.2748 38.4776 12.8483C37.4725 10.4218 35.9993 8.21699 34.1421 6.35982C32.285 4.50265 30.0802 3.02946 27.6537 2.02436C25.2272 1.01927 22.6264 0.501953 20 0.501953V0.501953ZM30.4167 28.604C30.4167 29.877 29.375 30.9186 28.1021 30.9186H11.8979C10.625 30.9186 9.58333 29.877 9.58333 28.604V12.3999C9.58333 11.127 10.625 10.0853 11.8979 10.0853H28.1021C29.375 10.0853 30.4167 11.127 30.4167 12.3999V28.604V28.604Z" fill="#737373"/>
</svg>
