<svg width="40" height="41" viewBox="0 0 40 41" fill="none" xmlns="http://www.w3.org/2000/svg">
<path fill-rule="evenodd" clip-rule="evenodd" d="M20 40.502C31.0457 40.502 40 31.5476 40 20.502C40 9.45626 31.0457 0.501953 20 0.501953C8.9543 0.501953 0 9.45626 0 20.502C0 31.5476 8.9543 40.502 20 40.502ZM23.9333 10.502C23.933 11.6547 24.3516 12.7682 25.1111 13.6353C26.6222 15.3797 28.7111 15.2797 28.7111 15.2797V18.7131C26.9971 18.716 25.3256 18.1796 23.9333 17.1797V24.1686C23.9333 27.6686 21.1 30.502 17.6111 30.502C14.3556 30.502 11.2889 27.8686 11.2889 24.1686C11.2889 20.3686 14.6444 17.3908 18.4778 17.902V21.4131C16.5778 20.8242 14.7333 22.2575 14.7333 24.1686C14.7333 25.7686 16.0444 27.0575 17.6222 27.0575C18.3683 27.0574 19.0852 26.7678 19.622 26.2497C20.1587 25.7315 20.4735 25.0253 20.5 24.2797V10.502H23.9333Z" fill="#737373"/>
</svg>
