<svg width="40" height="41" viewBox="0 0 40 41" fill="none" xmlns="http://www.w3.org/2000/svg">
<path d="M20 0.501953C8.95417 0.501953 0 9.45612 0 20.502C0 31.5478 8.95417 40.502 20 40.502C31.0458 40.502 40 31.5478 40 20.502C40 9.45612 31.0458 0.501953 20 0.501953ZM27.6917 23.0665C27.6917 23.0665 29.4604 24.8124 29.8958 25.6228C29.9083 25.6395 29.9146 25.6561 29.9187 25.6645C30.0958 25.9624 30.1375 26.1936 30.05 26.3665C29.9042 26.654 29.4042 26.7957 29.2333 26.8082H26.1083C25.8917 26.8082 25.4375 26.752 24.8875 26.3728C24.4646 26.077 24.0479 25.5915 23.6417 25.1186C23.0354 24.4145 22.5104 23.8061 21.9813 23.8061C21.914 23.806 21.8472 23.8166 21.7833 23.8374C21.3833 23.9665 20.8708 24.5374 20.8708 26.0582C20.8708 26.5332 20.4958 26.8061 20.2313 26.8061H18.8C18.3125 26.8061 15.7729 26.6353 13.5229 24.2624C10.7687 21.3561 8.28958 15.527 8.26875 15.4728C8.1125 15.0957 8.43542 14.8936 8.7875 14.8936H11.9437C12.3646 14.8936 12.5021 15.1499 12.5979 15.377C12.7104 15.6415 13.1229 16.6936 13.8 17.877C14.8979 19.8061 15.5708 20.5895 16.1104 20.5895C16.2116 20.5883 16.311 20.5625 16.4 20.5145C17.1042 20.1228 16.9729 17.6124 16.9417 17.0915C16.9417 16.9936 16.9396 15.9686 16.5792 15.477C16.3208 15.1207 15.8812 14.9853 15.6146 14.9353C15.7225 14.7864 15.8647 14.6656 16.0292 14.5832C16.5125 14.3415 17.3833 14.3061 18.2479 14.3061H18.7292C19.6667 14.3186 19.9083 14.379 20.2479 14.4645C20.9354 14.629 20.95 15.0728 20.8896 16.5915C20.8708 17.0228 20.8521 17.5103 20.8521 18.0853C20.8521 18.2103 20.8458 18.3436 20.8458 18.4853C20.825 19.2582 20.8 20.1353 21.3458 20.4957C21.417 20.5403 21.4993 20.5642 21.5833 20.5645C21.7729 20.5645 22.3438 20.5645 23.8896 17.9124C24.3663 17.0587 24.7806 16.1717 25.1292 15.2582C25.1604 15.204 25.2521 15.0374 25.3604 14.9728C25.4404 14.932 25.529 14.9113 25.6187 14.9124H29.3292C29.7333 14.9124 30.0104 14.9728 30.0625 15.129C30.1542 15.377 30.0458 16.1332 28.3521 18.427L27.5958 19.4249C26.0604 21.4374 26.0604 21.5395 27.6917 23.0665Z" fill="#737373"/>
</svg>
