<svg width="34" height="35" viewBox="0 0 34 35" fill="none" xmlns="http://www.w3.org/2000/svg">
<circle cx="17" cy="17.834" r="16.6222" stroke="#151515" stroke-width="0.755556"/>
<path d="M12.5332 18.1361C12.7317 16.9448 12.831 16.3492 13.0948 15.8837C13.4485 15.2595 14.0128 14.7815 14.6866 14.5352C15.1891 14.3516 15.793 14.3516 17.0007 14.3516V14.3516C18.2084 14.3516 18.8123 14.3516 19.3148 14.5352C19.9886 14.7815 20.5529 15.2595 20.9066 15.8837C21.1704 16.3492 21.2697 16.9448 21.4682 18.1361L21.7247 19.6753C21.8609 20.4921 21.9289 20.9004 21.7026 21.1676C21.4763 21.4348 21.0622 21.4348 20.2342 21.4348H13.7672C12.9392 21.4348 12.5251 21.4348 12.2988 21.1676C12.0725 20.9004 12.1405 20.4921 12.2767 19.6753L12.5332 18.1361Z" stroke="#151515" stroke-width="0.755556"/>
<path d="M14.9346 15.8262L14.9346 13.7602C14.9346 12.6192 15.8595 11.6943 17.0005 11.6943V11.6943C18.1415 11.6943 19.0665 12.6192 19.0665 13.7602L19.0665 15.8262" stroke="#151515" stroke-width="0.755556" stroke-linecap="round"/>
</svg>
