<svg width="14" height="15" viewBox="0 0 14 15" fill="none" xmlns="http://www.w3.org/2000/svg">
<path d="M0 2.33398C0 1.93616 0.158035 1.55463 0.43934 1.27332C0.720644 0.99202 1.10218 0.833984 1.5 0.833984H4.5C4.89782 0.833984 5.27936 0.99202 5.56066 1.27332C5.84196 1.55463 6 1.93616 6 2.33398V5.33398C6 5.73181 5.84196 6.11334 5.56066 6.39464C5.27936 6.67595 4.89782 6.83398 4.5 6.83398H1.5C1.10218 6.83398 0.720644 6.67595 0.43934 6.39464C0.158035 6.11334 0 5.73181 0 5.33398V2.33398ZM8 2.33398C8 1.93616 8.15804 1.55463 8.43934 1.27332C8.72064 0.99202 9.10218 0.833984 9.5 0.833984H12.5C12.8978 0.833984 13.2794 0.99202 13.5607 1.27332C13.842 1.55463 14 1.93616 14 2.33398V5.33398C14 5.73181 13.842 6.11334 13.5607 6.39464C13.2794 6.67595 12.8978 6.83398 12.5 6.83398H9.5C9.10218 6.83398 8.72064 6.67595 8.43934 6.39464C8.15804 6.11334 8 5.73181 8 5.33398V2.33398ZM0 10.334C0 9.93616 0.158035 9.55463 0.43934 9.27332C0.720644 8.99202 1.10218 8.83398 1.5 8.83398H4.5C4.89782 8.83398 5.27936 8.99202 5.56066 9.27332C5.84196 9.55463 6 9.93616 6 10.334V13.334C6 13.7318 5.84196 14.1133 5.56066 14.3946C5.27936 14.6759 4.89782 14.834 4.5 14.834H1.5C1.10218 14.834 0.720644 14.6759 0.43934 14.3946C0.158035 14.1133 0 13.7318 0 13.334V10.334ZM8 10.334C8 9.93616 8.15804 9.55463 8.43934 9.27332C8.72064 8.99202 9.10218 8.83398 9.5 8.83398H12.5C12.8978 8.83398 13.2794 8.99202 13.5607 9.27332C13.842 9.55463 14 9.93616 14 10.334V13.334C14 13.7318 13.842 14.1133 13.5607 14.3946C13.2794 14.6759 12.8978 14.834 12.5 14.834H9.5C9.10218 14.834 8.72064 14.6759 8.43934 14.3946C8.15804 14.1133 8 13.7318 8 13.334V10.334Z" fill="#78716C"/>
</svg>
