<svg width="15" height="12" viewBox="0 0 15 12" fill="none" xmlns="http://www.w3.org/2000/svg">
<path fill-rule="evenodd" clip-rule="evenodd" d="M4.50063 10.3349C4.50063 10.2023 4.55331 10.0751 4.64708 9.98132C4.74085 9.88756 4.86802 9.83488 5.00063 9.83488H14.0006C14.1332 9.83488 14.2604 9.88756 14.3542 9.98132C14.448 10.0751 14.5006 10.2023 14.5006 10.3349C14.5006 10.4675 14.448 10.5947 14.3542 10.6884C14.2604 10.7822 14.1332 10.8349 14.0006 10.8349H5.00063C4.86802 10.8349 4.74085 10.7822 4.64708 10.6884C4.55331 10.5947 4.50063 10.4675 4.50063 10.3349ZM4.50063 6.33488C4.50063 6.20227 4.55331 6.07509 4.64708 5.98133C4.74085 5.88756 4.86802 5.83488 5.00063 5.83488H14.0006C14.1332 5.83488 14.2604 5.88756 14.3542 5.98133C14.448 6.07509 14.5006 6.20227 14.5006 6.33488C14.5006 6.46749 14.448 6.59466 14.3542 6.68843C14.2604 6.7822 14.1332 6.83488 14.0006 6.83488H5.00063C4.86802 6.83488 4.74085 6.7822 4.64708 6.68843C4.55331 6.59466 4.50063 6.46749 4.50063 6.33488ZM4.50063 2.33488C4.50063 2.20227 4.55331 2.07509 4.64708 1.98132C4.74085 1.88756 4.86802 1.83488 5.00063 1.83488H14.0006C14.1332 1.83488 14.2604 1.88756 14.3542 1.98132C14.448 2.07509 14.5006 2.20227 14.5006 2.33488C14.5006 2.46749 14.448 2.59466 14.3542 2.68843C14.2604 2.7822 14.1332 2.83488 14.0006 2.83488H5.00063C4.86802 2.83488 4.74085 2.7822 4.64708 2.68843C4.55331 2.59466 4.50063 2.46749 4.50063 2.33488ZM3.35463 0.980878C3.40119 1.02732 3.43814 1.0825 3.46334 1.14324C3.48855 1.20399 3.50153 1.26911 3.50153 1.33488C3.50153 1.40065 3.48855 1.46577 3.46334 1.52651C3.43814 1.58726 3.40119 1.64243 3.35463 1.68888L1.85463 3.18888C1.80819 3.23544 1.75301 3.27238 1.69227 3.29759C1.63152 3.3228 1.5664 3.33577 1.50063 3.33577C1.43486 3.33577 1.36974 3.3228 1.309 3.29759C1.24825 3.27238 1.19308 3.23544 1.14663 3.18888L0.646632 2.68888C0.600144 2.64239 0.563267 2.5872 0.538108 2.52646C0.512949 2.46572 0.5 2.40062 0.5 2.33488C0.5 2.26913 0.512949 2.20403 0.538108 2.14329C0.563267 2.08256 0.600144 2.02737 0.646632 1.98088C0.69312 1.93439 0.748309 1.89751 0.809048 1.87235C0.869788 1.8472 0.934888 1.83425 1.00063 1.83425C1.06638 1.83425 1.13148 1.8472 1.19222 1.87235C1.25295 1.89751 1.30814 1.93439 1.35463 1.98088L1.50063 2.12788L2.64663 0.980878C2.69308 0.934315 2.74825 0.897372 2.809 0.872166C2.86974 0.846959 2.93486 0.833984 3.00063 0.833984C3.0664 0.833984 3.13152 0.846959 3.19227 0.872166C3.25301 0.897372 3.30819 0.934315 3.35463 0.980878ZM3.35463 4.98088C3.40119 5.02732 3.43814 5.0825 3.46334 5.14324C3.48855 5.20399 3.50153 5.26911 3.50153 5.33488C3.50153 5.40065 3.48855 5.46577 3.46334 5.52651C3.43814 5.58726 3.40119 5.64243 3.35463 5.68888L1.85463 7.18888C1.80819 7.23544 1.75301 7.27238 1.69227 7.29759C1.63152 7.3228 1.5664 7.33577 1.50063 7.33577C1.43486 7.33577 1.36974 7.3228 1.309 7.29759C1.24825 7.27238 1.19308 7.23544 1.14663 7.18888L0.646632 6.68888C0.552745 6.59499 0.5 6.46765 0.5 6.33488C0.5 6.2021 0.552745 6.07476 0.646632 5.98088C0.740518 5.88699 0.867856 5.83425 1.00063 5.83425C1.13341 5.83425 1.26074 5.88699 1.35463 5.98088L1.50063 6.12788L2.64663 4.98088C2.69308 4.93431 2.74825 4.89737 2.809 4.87217C2.86974 4.84696 2.93486 4.83398 3.00063 4.83398C3.0664 4.83398 3.13152 4.84696 3.19227 4.87217C3.25301 4.89737 3.30819 4.93431 3.35463 4.98088ZM3.35463 8.98088C3.40119 9.02732 3.43814 9.0825 3.46334 9.14324C3.48855 9.20399 3.50153 9.26911 3.50153 9.33488C3.50153 9.40065 3.48855 9.46577 3.46334 9.52651C3.43814 9.58726 3.40119 9.64243 3.35463 9.68888L1.85463 11.1889C1.80819 11.2354 1.75301 11.2724 1.69227 11.2976C1.63152 11.3228 1.5664 11.3358 1.50063 11.3358C1.43486 11.3358 1.36974 11.3228 1.309 11.2976C1.24825 11.2724 1.19308 11.2354 1.14663 11.1889L0.646632 10.6889C0.552745 10.595 0.5 10.4677 0.5 10.3349C0.5 10.2021 0.552745 10.0748 0.646632 9.98088C0.740518 9.88699 0.867856 9.83425 1.00063 9.83425C1.13341 9.83425 1.26074 9.88699 1.35463 9.98088L1.50063 10.1279L2.64663 8.98088C2.69308 8.93431 2.74825 8.89737 2.809 8.87217C2.86974 8.84696 2.93486 8.83398 3.00063 8.83398C3.0664 8.83398 3.13152 8.84696 3.19227 8.87217C3.25301 8.89737 3.30819 8.93431 3.35463 8.98088Z" fill="#78716C"/>
</svg>
