<svg width="21" height="20" viewBox="0 0 21 20" fill="none" xmlns="http://www.w3.org/2000/svg">
<path d="M4.85772 8.54716L7.19527 6.35111C7.32767 6.22671 7.30587 6.04211 7.14657 5.93872C6.98737 5.83536 6.75087 5.85239 6.61847 5.97675L4.61477 7.85915L4.17682 7.30362C4.06827 7.1659 3.83732 7.12292 3.66087 7.20776C3.48452 7.29257 3.42957 7.47295 3.53812 7.61063L4.24992 8.51347C4.38452 8.6841 4.69382 8.70116 4.85772 8.54716Z" fill="#78716C"/>
<path d="M3.53816 11.4857L4.24996 12.3885C4.38446 12.5591 4.69376 12.5762 4.85766 12.4222L7.19521 10.2261C7.32761 10.1017 7.30581 9.91712 7.14651 9.81373C6.98731 9.71038 6.75081 9.72736 6.61841 9.85176L4.61471 11.7342L4.17676 11.1786C4.06821 11.0409 3.83726 10.9979 3.66081 11.0828C3.48451 11.1676 3.42956 11.348 3.53816 11.4857Z" fill="#78716C"/>
<path d="M3.53816 15.3685L4.24996 16.2713C4.38446 16.442 4.69376 16.459 4.85766 16.305L7.19521 14.1089C7.32761 13.9845 7.30581 13.7999 7.14651 13.6965C6.98731 13.5932 6.75081 13.6102 6.61841 13.7346L4.61471 15.617L4.17676 15.0614C4.06821 14.9237 3.83726 14.8808 3.66081 14.9656C3.48451 15.0504 3.42956 15.2308 3.53816 15.3685Z" fill="#78716C"/>
<path d="M20.125 16.542C19.9179 16.542 19.75 16.673 19.75 16.8348V18.9665C19.75 19.2141 19.4921 19.4155 19.175 19.4155H1.825C1.50795 19.4155 1.25 19.2141 1.25 18.9665V6.13268C1.25 5.97092 1.0821 5.83984 0.875 5.83984C0.6679 5.83984 0.5 5.97092 0.5 6.13268V18.9665C0.5 19.537 1.0944 20.0012 1.825 20.0012H19.175C19.9056 20.0012 20.5 19.537 20.5 18.9665V16.8348C20.5 16.6731 20.3321 16.542 20.125 16.542Z" fill="#78716C"/>
<path d="M19.175 2.25646H17.3406V1.04641C17.3406 0.46944 16.7395 0 16.0006 0C15.2617 0 14.6606 0.469401 14.6606 1.04641V2.25646H11.84V1.04641C11.84 0.469401 11.2389 0 10.5 0C9.76115 0 9.16 0.469401 9.16 1.04641V2.25646H6.33935V1.04641C6.33935 0.46944 5.73825 0 4.99935 0C4.2605 0 3.65935 0.469401 3.65935 1.04641V2.25646H1.825C1.0944 2.25646 0.5 2.72063 0.5 3.29115V4.75605C0.5 4.91781 0.6679 5.04889 0.875 5.04889C1.0821 5.04889 1.25 4.91781 1.25 4.75605V3.29115C1.25 3.04357 1.50795 2.84213 1.825 2.84213H3.65935V3.30712C3.65935 3.88409 4.26045 4.35353 4.99935 4.35353C5.73825 4.35353 6.33935 3.88413 6.33935 3.30712V2.84213H9.16V3.30712C9.16 3.88409 9.7611 4.35353 10.5 4.35353C11.2389 4.35353 11.84 3.88413 11.84 3.30712V2.84213H14.6607V3.30712C14.6607 3.88409 15.2618 4.35353 16.0007 4.35353C16.7395 4.35353 17.3407 3.88413 17.3407 3.30712V2.84213H19.175C19.4921 2.84213 19.75 3.04357 19.75 3.29115V15.4582C19.75 15.6199 19.9179 15.751 20.125 15.751C20.3321 15.751 20.5 15.6199 20.5 15.4582V3.29115C20.5 2.72063 19.9056 2.25646 19.175 2.25646ZM5.5894 3.30712C5.5894 3.56119 5.32475 3.76785 4.9994 3.76785C4.6741 3.76785 4.4094 3.56119 4.4094 3.30712C4.4094 2.68291 4.4094 1.24179 4.4094 1.04641C4.4094 0.792343 4.67405 0.585677 4.9994 0.585677C5.32475 0.585677 5.5894 0.792343 5.5894 1.04641V3.30712ZM11.09 3.30712C11.09 3.56119 10.8253 3.76785 10.5 3.76785C10.1747 3.76785 9.91 3.56119 9.91 3.30712C9.91 2.68291 9.91 1.24179 9.91 1.04641C9.91 0.792343 10.1747 0.585677 10.5 0.585677C10.8253 0.585677 11.09 0.792343 11.09 1.04641V3.30712ZM16.5907 3.30712C16.5907 3.56119 16.326 3.76785 16.0007 3.76785C15.6753 3.76785 15.4107 3.56119 15.4107 3.30712C15.4107 2.68291 15.4107 1.24179 15.4107 1.04641C15.4107 0.792343 15.6753 0.585677 16.0007 0.585677C16.326 0.585677 16.5907 0.792343 16.5907 1.04641V3.30712Z" fill="#78716C"/>
<path d="M8.80195 8.79997H16.702C17.3499 8.79997 17.877 8.38835 17.877 7.8824C17.877 7.37646 17.3499 6.96484 16.702 6.96484H8.80195C8.15405 6.96484 7.62695 7.37646 7.62695 7.8824C7.62695 8.38835 8.15405 8.79997 8.80195 8.79997ZM8.80195 7.55052H16.702C16.9363 7.55052 17.127 7.6994 17.127 7.8824C17.127 8.06541 16.9363 8.21429 16.702 8.21429H8.80195C8.5676 8.21429 8.37695 8.06541 8.37695 7.8824C8.37695 7.6994 8.5676 7.55052 8.80195 7.55052Z" fill="#78716C"/>
<path d="M8.80195 12.6593H16.702C17.3499 12.6593 17.877 12.2477 17.877 11.7418C17.877 11.2358 17.3499 10.8242 16.702 10.8242H8.80195C8.15405 10.8242 7.62695 11.2358 7.62695 11.7418C7.62695 12.2477 8.15405 12.6593 8.80195 12.6593ZM8.80195 11.4099H16.702C16.9363 11.4099 17.127 11.5588 17.127 11.7418C17.127 11.9248 16.9363 12.0737 16.702 12.0737H8.80195C8.5676 12.0737 8.37695 11.9248 8.37695 11.7418C8.37695 11.5588 8.5676 11.4099 8.80195 11.4099Z" fill="#78716C"/>
<path d="M8.80195 16.5343H16.702C17.3499 16.5343 17.877 16.1227 17.877 15.6168C17.877 15.1108 17.3499 14.6992 16.702 14.6992H8.80195C8.15405 14.6992 7.62695 15.1108 7.62695 15.6168C7.62695 16.1227 8.15405 16.5343 8.80195 16.5343ZM8.80195 15.2849H16.702C16.9363 15.2849 17.127 15.4338 17.127 15.6168C17.127 15.7998 16.9363 15.9487 16.702 15.9487H8.80195C8.5676 15.9487 8.37695 15.7998 8.37695 15.6168C8.37695 15.4338 8.5676 15.2849 8.80195 15.2849Z" fill="#78716C"/>
</svg>
