<svg width="22" height="16" viewBox="0 0 22 16" fill="none" xmlns="http://www.w3.org/2000/svg">
<path d="M20.8717 0H1.12823C0.507675 0 0 0.553827 0 1.23075V14.7692C0 15.4461 0.507675 16 1.12823 16H20.8718C21.4922 16 22 15.4462 22 14.7692V1.23075C22 0.553827 21.4923 0 20.8717 0ZM20.4484 0.923014L11.649 8.12309C11.4908 8.25444 11.2479 8.33661 10.9999 8.33539C10.752 8.33661 10.5092 8.25444 10.3509 8.12309L1.55156 0.923014H20.4484ZM15.748 8.59817L20.5429 15.0597C20.5477 15.0662 20.5536 15.0711 20.5587 15.077H1.44126C1.44633 15.0708 1.45225 15.0662 1.45707 15.0597L6.25194 8.59817C6.39885 8.40003 6.37101 8.10955 6.18903 7.94891C6.00741 7.78864 5.74113 7.81902 5.59418 8.0172L0.846139 14.4157V1.49995L9.84352 8.86147C10.1817 9.13625 10.5932 9.25719 10.9999 9.2584C11.406 9.25747 11.8178 9.13653 12.1563 8.86147L21.1536 1.49995V14.4156L16.4057 8.0172C16.2588 7.81906 15.9923 7.78859 15.8109 7.94891C15.629 8.10917 15.601 8.40003 15.748 8.59817Z" fill="#151515"/>
</svg>
