<svg width="21" height="20" viewBox="0 0 21 20" fill="none" xmlns="http://www.w3.org/2000/svg">
<g clip-path="url(#clip0_1209_13189)">
<path d="M20.3666 9.6273C18.5488 7.41264 14.7003 4.82812 10.5 4.82812C6.28469 4.82812 2.43602 7.4302 0.633471 9.6273C0.45551 9.8442 0.45551 10.1566 0.633471 10.3735C2.49433 12.6417 6.35186 15.1727 10.5 15.1727C14.7956 15.1727 18.6277 12.492 20.3666 10.3735C20.5445 10.1566 20.5445 9.8442 20.3666 9.6273ZM14.4958 10.0004C14.4958 12.2037 12.7033 13.9962 10.5 13.9962C8.29661 13.9962 6.50414 12.2036 6.50414 10.0004C6.50414 7.79711 8.29665 6.00456 10.5 6.00456C12.7035 6.0046 14.4958 7.79734 14.4958 10.0004ZM1.88284 10.0006C2.54492 9.31244 4.14131 7.82738 6.3823 6.87424C4.97594 8.72217 4.97539 11.2771 6.38163 13.1257C4.67775 12.4035 3.09492 11.2626 1.88284 10.0006ZM14.6177 13.1266C16.0241 11.2786 16.0246 8.72369 14.6184 6.87511C16.3222 7.59726 17.9051 8.73824 19.1172 10.0002C18.4551 10.6884 16.8587 12.1734 14.6177 13.1266Z" fill="#78716C"/>
<path d="M8.50098 10C8.50098 11.1028 9.39815 12 10.501 12C11.6038 12 12.501 11.1028 12.501 10C12.501 8.89718 11.6038 8 10.501 8C9.39815 8 8.50098 8.89718 8.50098 10ZM11.3245 10C11.3245 10.4541 10.9551 10.8235 10.501 10.8235C10.0469 10.8235 9.67745 10.4541 9.67745 10C9.67745 9.54588 10.0469 9.17647 10.501 9.17647C10.9551 9.17647 11.3245 9.54588 11.3245 10Z" fill="#78716C"/>
<path d="M10.4994 2.54902C10.8242 2.54902 11.0876 2.28565 11.0876 1.96078V0.588235C11.0876 0.263373 10.8242 0 10.4994 0C10.1745 0 9.91113 0.263373 9.91113 0.588235V1.96078C9.91113 2.28565 10.1745 2.54902 10.4994 2.54902Z" fill="#78716C"/>
<path d="M14.0098 3.33516C14.2918 3.49602 14.6512 3.39795 14.8122 3.11559L15.595 1.74304C15.7559 1.46085 15.6577 1.10163 15.3755 0.940652C15.0932 0.779711 14.7341 0.877946 14.5731 1.16022L13.7903 2.53277C13.6293 2.81493 13.7276 3.17418 14.0098 3.33516Z" fill="#78716C"/>
<path d="M6.18831 3.11559C6.34925 3.39778 6.70847 3.49606 6.99071 3.33512C7.2729 3.17417 7.37118 2.81492 7.21024 2.53272L6.42741 1.16017C6.26647 0.877978 5.90718 0.779704 5.62502 0.940645C5.34282 1.10159 5.24455 1.46084 5.40549 1.74304L6.18831 3.11559Z" fill="#78716C"/>
<path d="M10.4994 17.4512C10.1745 17.4512 9.91113 17.7145 9.91113 18.0394V19.412C9.91113 19.7368 10.1745 20.0002 10.4994 20.0002C10.8242 20.0002 11.0876 19.7368 11.0876 19.412V18.0394C11.0876 17.7145 10.8242 17.4512 10.4994 17.4512Z" fill="#78716C"/>
<path d="M6.9907 16.6633C6.70851 16.5024 6.34929 16.6006 6.18831 16.8828L5.40549 18.2554C5.24455 18.5376 5.34282 18.8968 5.62502 19.0578C5.90725 19.2187 6.26647 19.1204 6.42741 18.8382L7.21023 17.4657C7.37121 17.1835 7.2729 16.8242 6.9907 16.6633Z" fill="#78716C"/>
<path d="M14.8122 16.8828C14.6512 16.6006 14.2919 16.5024 14.0098 16.6633C13.7276 16.8242 13.6293 17.1835 13.7903 17.4657L14.5731 18.8382C14.734 19.1204 15.0932 19.2187 15.3755 19.0578C15.6577 18.8968 15.7559 18.5376 15.595 18.2554L14.8122 16.8828Z" fill="#78716C"/>
</g>
<defs>
<clipPath id="clip0_1209_13189">
<rect width="20" height="20" fill="white" transform="translate(0.5)"/>
</clipPath>
</defs>
</svg>
