<svg width="19" height="20" viewBox="0 0 19 20" fill="none" xmlns="http://www.w3.org/2000/svg">
<path fill-rule="evenodd" clip-rule="evenodd" d="M9.49967 2.08398C7.31287 2.08398 5.54134 3.85551 5.54134 6.04232V8.41732H5.22467C4.52801 8.41732 3.95801 8.98732 3.95801 9.68398V15.2257C3.95801 16.2707 4.81301 17.1257 5.85801 17.1257H13.1413C14.1863 17.1257 15.0413 16.2707 15.0413 15.2257V9.68398C15.0413 8.98732 14.4713 8.41732 13.7747 8.41732H13.458V6.04232C13.458 3.85551 11.6865 2.08398 9.49967 2.08398ZM11.8747 8.41732V6.04232C11.8747 4.72996 10.812 3.66732 9.49967 3.66732C8.18732 3.66732 7.12467 4.72996 7.12467 6.04232V8.41732H11.8747Z" fill="#151515"/>
</svg>
