<svg width="91" height="57" viewBox="0 0 91 57" fill="none" xmlns="http://www.w3.org/2000/svg">
<path d="M29.4165 7.41895C20.7639 15.0298 26.9887 27.8788 37.9358 29.125C40.9852 29.477 43.8003 28.8645 46.381 27.2874C52.174 23.7437 54.207 18.5102 52.48 11.587C52.4666 11.5367 52.4424 11.4896 52.4088 11.4487C52.3752 11.4078 52.3331 11.3741 52.285 11.3495C52.237 11.325 52.1841 11.3103 52.1297 11.3063C52.0753 11.3024 52.0207 11.3092 51.9693 11.3265C50.748 11.7559 50.1855 12.7416 50.3779 14.0512C51.049 18.4867 49.5218 22.0023 45.7963 24.5979C34.6346 32.3707 21.8668 17.4588 31.4371 8.64401C33.4208 6.81346 36.1692 5.7433 39.6825 5.43351C40.6842 5.34433 41.2813 4.66374 41.4737 3.39175C41.5181 3.09605 41.3824 2.9435 41.0666 2.93411C36.8724 2.78391 32.989 4.27886 29.4165 7.41895Z" fill="url(#paint0_radial_2375_2405)"/>
<path d="M62.7461 12.2699C65.5809 19.5991 60.3331 26.1116 52.5762 26.872C52.5127 26.8767 52.4498 26.8935 52.3912 26.9213C51.5424 27.3203 51.0539 27.9281 50.9256 28.7448C50.9162 28.8042 50.9201 28.8648 50.9372 28.9226C50.9543 28.9804 50.9841 29.0341 51.0247 29.0801C51.0654 29.1261 51.1158 29.1633 51.1728 29.1892C51.2297 29.2152 51.2918 29.2293 51.3549 29.2306C64.404 29.3644 71.7391 14.6074 61.3249 6.0038C55.8995 1.51896 46.9214 2.25822 42.1991 7.38375C39.2903 10.5379 36.8995 16.3253 39.8528 20.1483C39.9787 20.313 40.1603 20.4315 40.3672 20.4838C40.5741 20.5362 40.7937 20.5193 40.989 20.4359C41.1843 20.3525 41.3435 20.2077 41.4398 20.0258C41.5362 19.844 41.5639 19.6361 41.5182 19.4372C40.8668 16.5459 41.1209 13.9502 42.2805 11.6503C46.4106 3.46215 59.3857 3.58888 62.7461 12.2699Z" fill="url(#paint1_radial_2375_2405)"/>
<path d="M6.34595 38.5979H6.90103V50.5559H6.34595V38.5979ZM6.66554 39.1275V38.5979H8.76811C9.497 38.5979 10.1418 38.7403 10.7025 39.025C11.2632 39.2983 11.7005 39.6969 12.0145 40.2208C12.3397 40.7333 12.5023 41.3596 12.5023 42.0999C12.5023 42.8288 12.3397 43.4551 12.0145 43.979C11.7005 44.5029 11.2632 44.9072 10.7025 45.1919C10.1418 45.4652 9.497 45.6019 8.76811 45.6019H6.66554V45.0894H8.76811C9.71006 45.0894 10.4726 44.8332 11.0557 44.3207C11.65 43.7968 11.9472 43.0565 11.9472 42.0999C11.9472 41.1433 11.65 40.4087 11.0557 39.8962C10.4726 39.3837 9.71006 39.1275 8.76811 39.1275H6.66554Z" fill="#FCFBFB"/>
<path d="M16.6738 45.004H17.2793L21.148 50.5559H20.4752L16.6738 45.004ZM14.7562 38.5979H15.3113V50.5559H14.7562V38.5979ZM15.0085 39.1104V38.5979H17.0606C17.8232 38.5979 18.5016 38.7289 19.0959 38.9908C19.6903 39.2414 20.1612 39.6172 20.5089 40.1183C20.8677 40.6194 21.0471 41.2401 21.0471 41.9803C21.0471 42.7092 20.8677 43.3299 20.5089 43.8424C20.1612 44.3435 19.6903 44.725 19.0959 44.9869C18.5016 45.2375 17.8232 45.3627 17.0606 45.3627H15.0085V44.8673H17.0606C17.7335 44.8673 18.3278 44.7591 18.8436 44.5428C19.3594 44.3264 19.7631 44.0075 20.0547 43.5861C20.3463 43.1533 20.492 42.6181 20.492 41.9803C20.492 41.3426 20.3463 40.813 20.0547 40.3916C19.7631 39.9588 19.3594 39.64 18.8436 39.435C18.3278 39.2186 17.7335 39.1104 17.0606 39.1104H15.0085Z" fill="#FCFBFB"/>
<path d="M22.9834 44.5769C22.9834 45.6475 23.2021 46.6041 23.6394 47.4469C24.088 48.2782 24.7047 48.9388 25.4897 49.4285C26.2747 49.9068 27.1662 50.146 28.1642 50.146C29.1846 50.146 30.0817 49.9068 30.8555 49.4285C31.6404 48.9388 32.2516 48.2782 32.6889 47.4469C33.1262 46.6041 33.3449 45.6475 33.3449 44.5769C33.3449 43.495 33.1262 42.5384 32.6889 41.707C32.2516 40.8756 31.6404 40.2208 30.8555 39.7425C30.0817 39.2527 29.1846 39.0079 28.1642 39.0079C27.1662 39.0079 26.2747 39.2527 25.4897 39.7425C24.7047 40.2208 24.088 40.8756 23.6394 41.707C23.2021 42.5384 22.9834 43.495 22.9834 44.5769ZM22.4115 44.5769C22.4115 43.6886 22.5517 42.8743 22.8321 42.1341C23.1236 41.3824 23.5273 40.7333 24.0431 40.1866C24.559 39.64 25.1645 39.2129 25.8598 38.9054C26.5662 38.5979 27.3344 38.4442 28.1642 38.4442C29.0052 38.4442 29.7733 38.5979 30.4686 38.9054C31.1638 39.2129 31.7694 39.64 32.2852 40.1866C32.8123 40.7333 33.2159 41.3824 33.4963 42.1341C33.7878 42.8743 33.9336 43.6886 33.9336 44.5769C33.9336 45.4538 33.7878 46.2681 33.4963 47.0198C33.2159 47.7714 32.8123 48.4206 32.2852 48.9672C31.7694 49.5139 31.1638 49.941 30.4686 50.2485C29.7733 50.5559 29.0052 50.7097 28.1642 50.7097C27.3344 50.7097 26.5662 50.5559 25.8598 50.2485C25.1645 49.941 24.559 49.5139 24.0431 48.9672C23.5273 48.4206 23.1236 47.7714 22.8321 47.0198C22.5517 46.2681 22.4115 45.4538 22.4115 44.5769Z" fill="#FCFBFB"/>
<path d="M50.0326 38.5979H51.4623V51.1538L42.5475 41.6557V50.5559H41.1177V38L50.0326 47.4981V38.5979Z" fill="#FCFBFB"/>
<path d="M55.2872 46.9685L55.7918 45.6019H61.0062L61.5108 46.9685H55.2872ZM58.3653 41.297L56.3805 46.0461L56.246 46.3535L54.4966 50.5559H52.8987L58.3653 38L63.832 50.5559H62.2341L60.5184 46.456L60.3838 46.1144L58.3653 41.297Z" fill="#FCFBFB"/>
<path d="M65.5962 44.5769C65.5962 45.4994 65.7981 46.3137 66.2017 47.0198C66.6167 47.7259 67.1549 48.2782 67.8165 48.6768C68.4781 49.0754 69.1958 49.2747 69.9696 49.2747C70.5302 49.2747 71.0405 49.2007 71.5002 49.0526C71.9712 48.9046 72.3973 48.6996 72.7786 48.4377C73.1599 48.1643 73.485 47.8511 73.7542 47.4981V49.4114C73.2608 49.8555 72.7225 50.1858 72.1394 50.4022C71.5563 50.6186 70.833 50.7268 69.9696 50.7268C69.151 50.7268 68.3828 50.5787 67.6651 50.2826C66.9587 49.9751 66.3363 49.5481 65.7981 49.0014C65.2598 48.4434 64.8393 47.7885 64.5365 47.0369C64.2337 46.2852 64.0824 45.4652 64.0824 44.5769C64.0824 43.6886 64.2337 42.8686 64.5365 42.117C64.8393 41.3653 65.2598 40.7162 65.7981 40.1695C66.3363 39.6115 66.9587 39.1844 67.6651 38.8883C68.3828 38.5808 69.151 38.4271 69.9696 38.4271C70.833 38.4271 71.5563 38.5353 72.1394 38.7516C72.7225 38.968 73.2608 39.2983 73.7542 39.7425V41.6557C73.485 41.3027 73.1599 40.9952 72.7786 40.7333C72.3973 40.4599 71.9712 40.2493 71.5002 40.1012C71.0405 39.9531 70.5302 39.8791 69.9696 39.8791C69.1958 39.8791 68.4781 40.0784 67.8165 40.477C67.1549 40.8756 66.6167 41.428 66.2017 42.1341C65.7981 42.8288 65.5962 43.6431 65.5962 44.5769Z" fill="#FCFBFB"/>
<path d="M77.1111 44.5769C77.1111 45.4994 77.3129 46.3137 77.7166 47.0198C78.1315 47.7259 78.6698 48.2782 79.3314 48.6768C79.993 49.0754 80.7107 49.2747 81.4844 49.2747C82.0451 49.2747 82.5553 49.2007 83.0151 49.0526C83.4861 48.9046 83.9122 48.6996 84.2934 48.4377C84.6747 48.1643 84.9999 47.8511 85.269 47.4981V49.4114C84.7756 49.8555 84.2374 50.1858 83.6543 50.4022C83.0711 50.6186 82.3479 50.7268 81.4844 50.7268C80.6658 50.7268 79.8977 50.5787 79.18 50.2826C78.4735 49.9751 77.8512 49.5481 77.3129 49.0014C76.7747 48.4434 76.3541 47.7885 76.0514 47.0369C75.7486 46.2852 75.5972 45.4652 75.5972 44.5769C75.5972 43.6886 75.7486 42.8686 76.0514 42.117C76.3541 41.3653 76.7747 40.7162 77.3129 40.1695C77.8512 39.6115 78.4735 39.1844 79.18 38.8883C79.8977 38.5808 80.6658 38.4271 81.4844 38.4271C82.3479 38.4271 83.0711 38.5353 83.6543 38.7516C84.2374 38.968 84.7756 39.2983 85.269 39.7425V41.6557C84.9999 41.3027 84.6747 40.9952 84.2934 40.7333C83.9122 40.4599 83.4861 40.2493 83.0151 40.1012C82.5553 39.9531 82.0451 39.8791 81.4844 39.8791C80.7107 39.8791 79.993 40.0784 79.3314 40.477C78.6698 40.8756 78.1315 41.428 77.7166 42.1341C77.3129 42.8288 77.1111 43.6431 77.1111 44.5769Z" fill="#FCFBFB"/>
<defs>
<radialGradient id="paint0_radial_2375_2405" cx="0" cy="0" r="1" gradientUnits="userSpaceOnUse" gradientTransform="translate(46.9431 6.90523) rotate(39.6116) scale(23.0906 22.9546)">
<stop stop-color="#AF5A21"/>
<stop offset="0.0001" stop-color="#5C0C01"/>
<stop offset="0.280089" stop-color="#A9541A"/>
<stop offset="0.621172" stop-color="#CE9D71"/>
<stop offset="1" stop-color="#973E05"/>
</radialGradient>
<radialGradient id="paint1_radial_2375_2405" cx="0" cy="0" r="1" gradientUnits="userSpaceOnUse" gradientTransform="translate(46.9431 6.90523) rotate(39.6116) scale(23.0906 22.9546)">
<stop stop-color="#AF5A21"/>
<stop offset="0.0001" stop-color="#5C0C01"/>
<stop offset="0.280089" stop-color="#A9541A"/>
<stop offset="0.621172" stop-color="#CE9D71"/>
<stop offset="1" stop-color="#973E05"/>
</radialGradient>
</defs>
</svg>
