<svg width="42" height="42" viewBox="0 0 42 42" fill="none" xmlns="http://www.w3.org/2000/svg">
<path fill-rule="evenodd" clip-rule="evenodd" d="M27.9833 13.6909C28.1076 13.5713 28.2542 13.4774 28.4148 13.4145C28.5754 13.3517 28.7468 13.3211 28.9193 13.3245C29.0917 13.3279 29.2618 13.3653 29.4198 13.4344C29.5778 13.5036 29.7206 13.6033 29.84 13.7277L35.9475 20.0924C36.1818 20.3368 36.3125 20.6622 36.3125 21.0007C36.3125 21.3392 36.1818 21.6646 35.9475 21.9089L29.84 28.2737C29.7206 28.398 29.5779 28.4976 29.42 28.5668C29.2622 28.636 29.0922 28.6734 28.9199 28.6769C28.7475 28.6803 28.5762 28.6499 28.4156 28.5871C28.2551 28.5244 28.1085 28.4307 27.9841 28.3113C27.8598 28.1919 27.7602 28.0492 27.691 27.8913C27.6219 27.7335 27.5845 27.5635 27.581 27.3912C27.5775 27.2188 27.608 27.0475 27.6707 26.8869C27.7334 26.7264 27.8271 26.5798 27.9465 26.4554L31.9208 22.3132H19.7285C19.3804 22.3132 19.0466 22.1749 18.8004 21.9288C18.5543 21.6826 18.416 21.3488 18.416 21.0007C18.416 20.6526 18.5543 20.3187 18.8004 20.0726C19.0466 19.8265 19.3804 19.6882 19.7285 19.6882H31.9225L27.9465 15.5459C27.7058 15.2948 27.5746 14.9583 27.5818 14.6105C27.589 14.2626 27.7341 13.9319 27.985 13.6909" fill="#737373"/>
<path fill-rule="evenodd" clip-rule="evenodd" d="M5.6875 7C5.6875 6.6519 5.82578 6.31806 6.07192 6.07192C6.31806 5.82578 6.6519 5.6875 7 5.6875H23.5462C23.8943 5.6875 24.2282 5.82578 24.4743 6.07192C24.7205 6.31806 24.8587 6.6519 24.8587 7V12.25C24.8587 12.5981 24.7205 12.9319 24.4743 13.1781C24.2282 13.4242 23.8943 13.5625 23.5462 13.5625C23.1982 13.5625 22.8643 13.4242 22.6182 13.1781C22.372 12.9319 22.2337 12.5981 22.2337 12.25V8.3125H8.3125V33.6875H22.232V29.75C22.232 29.4019 22.3703 29.0681 22.6164 28.8219C22.8626 28.5758 23.1964 28.4375 23.5445 28.4375C23.8926 28.4375 24.2264 28.5758 24.4726 28.8219C24.7187 29.0681 24.857 29.4019 24.857 29.75V35C24.857 35.3481 24.7187 35.6819 24.4726 35.9281C24.2264 36.1742 23.8926 36.3125 23.5445 36.3125H7C6.6519 36.3125 6.31806 36.1742 6.07192 35.9281C5.82578 35.6819 5.6875 35.3481 5.6875 35V7Z" fill="#737373"/>
</svg>
